<?xml version="1.0" standalone="no"?>
<!DOCTYPE svg PUBLIC "-//W3C//DTD SVG 20010904//EN"
 "http://www.w3.org/TR/2001/REC-SVG-20010904/DTD/svg10.dtd">
<svg version="1.0" xmlns="http://www.w3.org/2000/svg"
 width="1080.000000pt" height="805.000000pt" viewBox="0 0 1080.000000 805.000000"
 preserveAspectRatio="xMidYMid meet">

<g transform="translate(0.000000,805.000000) scale(0.100000,-0.100000)"
fill="#000000" stroke="none">
<path d="M5490 7892 c0 -17 -4 -34 -10 -37 -5 -3 -10 -19 -10 -35 0 -16 -4
-32 -10 -35 -5 -3 -10 -19 -10 -35 0 -16 -5 -32 -11 -36 -6 -3 -8 -16 -5 -28
2 -11 -2 -30 -10 -40 -8 -11 -14 -32 -14 -46 0 -15 -3 -30 -7 -34 -5 -4 -8
-15 -8 -24 -1 -21 -24 -101 -36 -124 -5 -10 -9 -27 -9 -37 0 -11 -4 -22 -9
-25 -4 -3 -12 -33 -15 -68 -4 -34 -13 -73 -21 -87 -7 -15 -16 -48 -20 -74 -4
-26 -11 -50 -16 -53 -5 -3 -9 -14 -9 -26 0 -21 -36 -140 -51 -170 -5 -10 -9
-29 -9 -42 0 -14 -4 -28 -10 -31 -5 -3 -10 -17 -10 -30 0 -13 -5 -27 -11 -31
-6 -3 -9 -17 -6 -30 2 -14 -1 -25 -9 -28 -8 -3 -14 -17 -14 -31 0 -14 -4 -33
-9 -43 -22 -42 -45 -98 -43 -105 1 -5 -4 -20 -12 -35 -23 -42 -48 -117 -44
-133 1 -8 -8 -29 -20 -47 -13 -18 -25 -38 -26 -45 -1 -7 -5 -17 -9 -24 -4 -6
-4 -18 -1 -27 3 -9 2 -16 -3 -16 -10 0 -43 -68 -43 -88 0 -6 -9 -27 -20 -47
-11 -20 -20 -42 -20 -49 0 -12 -17 -52 -52 -120 -5 -10 -11 -37 -13 -59 -2
-24 -9 -44 -19 -49 -9 -5 -16 -15 -16 -23 0 -8 -8 -29 -19 -48 -10 -18 -22
-53 -26 -77 -4 -24 -11 -51 -15 -60 -4 -8 -16 -35 -25 -60 -10 -25 -21 -54
-26 -65 -4 -11 -12 -45 -18 -75 -5 -30 -15 -73 -21 -95 -17 -64 -31 -145 -37
-215 -3 -36 -8 -69 -13 -75 -8 -11 -5 -430 5 -550 4 -44 11 -85 17 -92 5 -7
12 -34 14 -60 4 -52 16 -122 34 -193 6 -25 14 -58 17 -75 3 -16 9 -34 13 -40
5 -5 11 -40 15 -77 6 -55 11 -67 28 -72 16 -4 18 -8 9 -18 -7 -9 -8 -19 -2
-28 6 -8 10 -32 10 -52 0 -21 5 -38 10 -38 6 0 10 -9 10 -20 0 -11 4 -28 9
-38 25 -47 39 -86 34 -98 -2 -6 0 -15 6 -19 6 -3 11 -17 11 -31 0 -13 5 -24
10 -24 6 0 10 -13 10 -30 0 -16 5 -30 10 -30 6 0 10 -9 10 -20 0 -11 7 -20 15
-20 11 0 13 -8 9 -30 -4 -19 -2 -30 5 -30 6 0 11 -11 11 -24 0 -14 4 -28 10
-31 6 -3 10 -13 10 -21 0 -8 9 -34 20 -56 11 -23 20 -45 20 -50 0 -5 9 -27 19
-51 10 -23 27 -67 36 -97 16 -51 45 -121 66 -162 5 -10 9 -26 9 -37 0 -10 7
-24 15 -31 8 -7 13 -16 10 -20 -3 -5 -1 -11 5 -15 5 -3 10 -17 10 -31 0 -14 7
-27 15 -30 9 -4 15 -11 14 -18 -3 -24 15 -78 27 -83 8 -3 12 -9 9 -14 -3 -4
-1 -16 4 -26 13 -25 35 -86 36 -98 0 -5 8 -23 16 -40 9 -16 20 -46 24 -65 4
-19 16 -51 26 -70 11 -19 19 -42 19 -51 0 -28 95 -204 110 -204 20 0 15 92 -7
152 -8 23 -12 46 -9 52 4 5 2 12 -4 16 -5 3 -10 18 -10 32 0 27 -16 84 -31
115 -5 10 -9 29 -9 43 0 14 -4 33 -9 43 -14 29 -31 87 -31 110 0 11 -4 24 -10
27 -5 3 -10 17 -10 30 0 13 -4 27 -10 30 -5 3 -10 19 -10 36 0 16 -4 37 -9 47
-5 9 -15 37 -21 62 -7 25 -17 61 -22 80 -6 19 -14 49 -19 66 -5 17 -9 40 -9
52 0 11 -4 24 -10 27 -5 3 -10 21 -10 40 0 19 -4 37 -10 40 -5 3 -10 20 -10
36 0 17 -7 37 -15 46 -8 8 -12 19 -9 25 7 11 -23 195 -37 220 -5 10 -9 35 -9
57 0 21 -6 44 -14 50 -8 7 -12 26 -10 51 2 21 -1 42 -6 45 -6 3 -10 29 -10 56
0 28 -7 60 -16 74 -9 13 -15 41 -13 62 1 21 -1 45 -5 53 -3 9 -9 47 -11 85 -3
39 -10 133 -16 210 -17 212 -10 567 12 589 5 6 9 38 9 72 0 35 5 66 11 70 6 3
9 19 6 34 -3 14 1 39 9 54 8 16 14 39 14 52 0 12 4 25 9 28 4 3 11 25 13 49 3
23 12 58 20 77 24 54 48 141 43 150 -3 5 0 12 7 17 18 11 38 49 38 72 0 11 3
21 8 23 4 2 31 51 60 111 29 59 58 107 64 107 5 0 7 7 4 15 -3 9 1 18 9 21 8
4 12 10 9 15 -3 5 6 20 20 33 14 13 26 30 26 39 0 9 9 21 20 27 11 6 20 18 20
28 1 20 44 72 60 72 6 0 21 -10 34 -22 13 -13 49 -47 80 -76 31 -29 56 -59 56
-65 0 -13 29 -53 68 -94 12 -13 20 -29 16 -34 -3 -6 4 -18 15 -28 12 -10 21
-26 21 -35 0 -9 3 -16 8 -16 4 0 15 -18 25 -40 9 -22 22 -40 28 -40 6 0 8 -7
5 -15 -3 -9 1 -18 8 -21 8 -3 12 -13 9 -23 -2 -10 5 -34 16 -55 12 -20 21 -45
21 -56 0 -11 4 -20 8 -20 4 0 8 -15 9 -33 0 -18 9 -50 18 -72 10 -22 17 -44
16 -49 -1 -6 5 -39 13 -75 15 -62 38 -224 34 -239 -1 -4 4 -32 11 -62 15 -67
10 -460 -7 -532 -6 -26 -13 -100 -15 -165 -2 -65 -9 -128 -15 -140 -7 -12 -12
-40 -12 -62 0 -22 -5 -52 -10 -66 -6 -15 -11 -46 -12 -68 0 -23 -5 -50 -10
-60 -5 -10 -12 -37 -14 -60 -11 -100 -17 -133 -25 -142 -5 -5 -9 -26 -9 -46 0
-21 -5 -41 -11 -45 -6 -3 -9 -19 -5 -34 3 -18 0 -33 -9 -40 -9 -8 -15 -30 -15
-56 0 -23 -4 -46 -10 -49 -5 -3 -10 -22 -10 -41 0 -19 -4 -34 -10 -34 -5 0
-10 -14 -10 -32 0 -29 -11 -74 -31 -123 -7 -18 -13 -53 -22 -127 -2 -15 -8
-33 -14 -40 -10 -12 -20 -53 -26 -109 -2 -14 -7 -32 -12 -39 -5 -8 -8 -27 -7
-42 1 -16 -3 -31 -11 -34 -8 -3 -12 -17 -9 -38 2 -19 -1 -37 -7 -40 -6 -4 -11
-22 -11 -41 0 -19 -4 -36 -9 -39 -5 -3 -11 -23 -14 -43 -3 -21 -11 -58 -17
-83 -6 -25 -14 -62 -17 -83 -3 -20 -9 -40 -14 -43 -5 -3 -9 -23 -9 -45 0 -22
-5 -49 -11 -61 -12 -22 -4 -68 12 -68 6 0 18 18 27 40 9 22 23 40 30 40 6 0
12 7 12 15 0 8 9 34 19 58 10 23 25 57 32 74 8 18 17 33 20 33 8 0 23 59 20
77 -1 7 3 13 9 13 5 0 10 9 10 20 0 11 3 20 8 20 4 0 12 15 18 33 24 69 38
104 66 164 15 34 28 69 28 78 0 8 5 24 10 35 6 11 15 29 20 40 6 11 10 29 10
39 0 11 5 23 11 27 6 3 8 15 6 26 -3 11 0 21 9 25 8 3 14 12 14 20 0 7 9 33
20 55 11 23 20 52 20 65 0 13 4 23 8 23 5 0 14 19 21 43 7 23 17 50 22 59 5
10 6 24 3 33 -4 9 -1 15 9 15 9 0 16 13 19 38 3 21 15 58 27 82 11 24 21 54
21 67 0 13 5 23 11 23 6 0 9 6 6 14 -3 7 0 22 7 32 7 11 27 66 45 124 19 58
36 112 39 120 3 8 4 19 3 24 -1 5 5 16 13 25 8 9 18 44 21 78 5 38 13 64 21
67 8 3 14 20 14 40 0 19 5 38 10 41 6 3 10 19 10 35 0 16 5 32 10 35 6 3 10
24 10 45 0 21 4 41 9 44 5 3 11 20 14 38 60 351 67 422 66 648 0 221 -14 381
-34 392 -8 5 -13 31 -13 77 -1 39 -6 79 -11 90 -6 11 -11 30 -11 43 0 13 -7
32 -15 42 -8 11 -12 29 -9 42 3 12 1 25 -5 28 -6 4 -11 20 -11 37 0 16 -4 29
-10 29 -5 0 -10 11 -10 24 0 14 -4 28 -10 31 -5 3 -10 15 -10 25 0 11 -9 35
-20 55 -11 20 -20 44 -20 55 0 10 -4 22 -10 25 -5 3 -10 16 -10 29 0 12 -4 26
-8 32 -5 5 -15 25 -22 44 -16 43 -48 119 -61 143 -5 10 -7 22 -4 27 4 6 1 10
-4 10 -6 0 -11 9 -11 21 0 12 -8 23 -18 26 -15 3 -19 14 -19 47 -1 23 -11 59
-22 79 -12 21 -21 44 -21 52 0 8 -9 30 -20 50 -11 20 -20 44 -20 54 0 10 -7
22 -16 25 -8 3 -13 10 -9 16 3 5 1 18 -5 30 -5 11 -14 29 -20 40 -5 11 -10 25
-10 30 0 6 -9 30 -20 52 -11 23 -20 49 -20 57 0 9 -7 24 -15 34 -7 11 -11 25
-8 33 3 8 -2 16 -10 20 -9 3 -13 12 -10 20 3 8 1 27 -5 42 -6 15 -13 36 -18
47 -4 11 -8 27 -10 35 -2 8 -7 23 -12 35 -23 50 -35 81 -38 100 -2 11 -6 31
-9 45 -2 14 -8 40 -11 58 -3 18 -10 35 -15 38 -5 3 -9 20 -9 39 0 19 -4 36 -9
39 -8 6 -14 31 -27 119 -4 20 -10 40 -15 43 -5 3 -9 21 -9 40 0 19 -4 34 -10
34 -5 0 -10 16 -10 35 0 20 -7 47 -16 60 -9 13 -13 29 -9 35 4 6 2 23 -3 38
-5 15 -16 53 -23 85 -7 32 -16 60 -21 63 -4 3 -8 14 -8 25 0 11 -9 39 -20 61
-11 23 -20 49 -20 59 0 9 -7 22 -15 29 -13 11 -15 8 -15 -18z"/>
<path d="M8935 5952 c-16 -9 -31 -20 -33 -24 -2 -5 -10 -8 -17 -8 -29 0 -134
-56 -139 -74 -4 -16 -7 -17 -20 -6 -11 8 -16 9 -16 1 0 -6 -9 -11 -20 -11 -11
0 -20 -4 -20 -10 0 -5 -9 -10 -20 -10 -11 0 -20 -4 -20 -10 0 -5 -9 -10 -20
-10 -11 0 -20 -3 -20 -8 0 -4 -43 -30 -95 -57 -52 -28 -98 -58 -101 -68 -3 -9
-10 -15 -15 -11 -6 3 -16 0 -24 -6 -8 -7 -15 -9 -15 -4 0 4 -10 -2 -22 -13
-13 -11 -31 -23 -40 -26 -10 -4 -18 -13 -18 -22 0 -9 -9 -15 -25 -15 -14 0
-28 -7 -32 -16 -3 -8 -12 -13 -19 -10 -7 3 -22 -7 -34 -21 -11 -14 -23 -23
-26 -20 -4 3 -20 -7 -38 -23 -17 -17 -35 -30 -39 -30 -4 0 -13 -5 -20 -10 -28
-24 -83 -61 -99 -66 -10 -4 -18 -12 -18 -19 0 -14 -27 -28 -39 -20 -4 2 -21
-14 -37 -35 -17 -23 -37 -40 -49 -40 -11 0 -26 -9 -33 -20 -7 -11 -19 -20 -27
-20 -8 0 -15 -4 -15 -8 0 -5 -11 -15 -25 -22 -14 -7 -25 -19 -25 -26 0 -8 -11
-16 -24 -20 -14 -3 -48 -30 -76 -60 -28 -30 -56 -54 -62 -54 -6 0 -47 -36 -90
-80 -44 -44 -84 -80 -89 -80 -5 0 -9 -7 -9 -15 0 -8 -11 -17 -24 -21 -32 -8
-265 -240 -282 -281 -8 -18 -19 -33 -24 -33 -13 0 -63 -53 -110 -115 -21 -27
-47 -59 -59 -69 -11 -11 -21 -25 -21 -33 0 -7 -4 -13 -9 -13 -5 0 -11 -9 -14
-20 -3 -11 -12 -20 -21 -20 -9 0 -16 -7 -16 -15 0 -8 -9 -19 -20 -25 -11 -6
-20 -17 -20 -25 0 -8 -5 -15 -11 -15 -8 0 -7 -6 2 -17 12 -15 12 -16 -3 -10
-12 4 -18 2 -18 -7 0 -7 -9 -21 -20 -31 -11 -10 -20 -24 -20 -32 0 -7 -4 -13
-10 -13 -5 0 -19 -18 -30 -40 -11 -22 -25 -40 -31 -40 -6 0 -9 -6 -6 -12 2 -7
-11 -31 -30 -52 -18 -22 -33 -48 -33 -57 0 -10 -9 -25 -21 -33 -12 -8 -18 -19
-15 -25 4 -5 0 -13 -7 -18 -7 -4 -33 -48 -57 -98 -23 -49 -47 -91 -52 -93 -4
-2 -8 -10 -8 -18 0 -8 -4 -22 -9 -32 -6 -9 -21 -42 -34 -72 -14 -30 -32 -72
-42 -94 -9 -21 -18 -45 -19 -52 -1 -8 -8 -20 -14 -26 -7 -7 -12 -20 -12 -29 0
-10 -5 -21 -11 -24 -6 -4 -8 -13 -5 -21 3 -8 -1 -17 -9 -20 -8 -4 -15 -12 -15
-20 0 -14 -4 -25 -28 -71 -7 -13 -12 -29 -12 -38 0 -8 -9 -31 -20 -51 -12 -20
-22 -56 -24 -81 -2 -25 -8 -48 -12 -52 -14 -10 -55 -98 -69 -149 -15 -53 -41
-127 -55 -157 -5 -11 -14 -38 -21 -60 -6 -22 -15 -48 -20 -57 -5 -10 -9 -25
-9 -33 0 -15 -4 -25 -28 -72 -7 -13 -12 -36 -12 -52 0 -17 -4 -33 -10 -36 -5
-3 -10 -17 -10 -30 0 -13 -4 -27 -10 -30 -5 -3 -10 -19 -10 -35 0 -16 -4 -32
-10 -35 -5 -3 -10 -19 -10 -36 0 -16 -4 -29 -10 -29 -5 0 -10 -22 -10 -49 0
-30 -5 -51 -12 -54 -10 -3 -10 -9 -2 -23 11 -19 10 -25 -14 -71 -15 -28 -16
-263 -2 -263 6 0 10 -9 10 -20 0 -11 4 -20 9 -20 5 0 11 -10 13 -22 6 -41 25
-28 59 39 19 37 37 70 41 71 5 2 8 9 8 16 0 7 9 21 20 31 11 10 20 26 20 37 0
10 5 18 11 18 6 0 9 7 6 14 -4 10 -1 13 9 9 9 -3 14 1 14 14 0 11 11 30 25 43
14 13 25 29 25 36 0 7 16 25 35 40 19 14 35 30 35 35 0 14 44 79 53 79 13 0
257 245 257 258 0 6 9 13 19 17 11 3 22 12 25 20 3 8 15 15 26 15 17 0 20 4
15 20 -4 14 -2 18 7 15 8 -3 31 10 52 30 21 19 44 35 50 35 6 0 22 14 35 30
13 17 32 30 42 30 11 0 19 3 19 8 0 4 17 18 38 32 20 14 45 35 55 48 10 12 25
22 33 22 7 0 19 9 26 20 7 11 19 20 26 20 14 0 48 18 77 41 11 9 35 22 53 30
17 8 32 20 32 27 0 7 14 15 31 19 17 3 33 12 36 19 3 8 9 12 13 9 5 -3 25 4
44 15 42 23 49 9 16 -33 -11 -14 -20 -29 -20 -34 -1 -4 -12 -17 -26 -28 -53
-43 -82 -74 -95 -104 -8 -17 -22 -34 -31 -37 -21 -6 -23 -20 -5 -28 6 -3 4 -4
-7 -3 -10 1 -23 -7 -30 -18 -6 -11 -17 -24 -23 -28 -7 -4 -13 -15 -13 -22 0
-8 -7 -15 -15 -15 -9 0 -19 -8 -22 -18 -4 -9 -11 -20 -17 -24 -6 -4 -11 -13
-11 -20 0 -7 -8 -14 -17 -16 -24 -5 -103 -87 -122 -127 -9 -19 -28 -43 -42
-52 -37 -26 -74 -62 -74 -73 0 -5 -8 -11 -18 -14 -10 -4 -29 -24 -41 -46 -12
-22 -26 -40 -30 -40 -5 0 -21 -18 -36 -40 -15 -22 -31 -40 -35 -40 -14 0 -135
-124 -132 -136 1 -6 -4 -14 -13 -18 -8 -3 -15 -12 -15 -21 0 -8 -5 -15 -11
-15 -13 0 -179 -166 -179 -179 0 -5 -34 -43 -76 -84 -42 -42 -73 -80 -69 -86
4 -7 0 -8 -11 -4 -13 5 -15 2 -9 -15 3 -12 2 -22 -2 -22 -11 0 -44 -72 -37
-79 8 -8 223 -7 329 1 50 4 111 8 138 8 34 0 47 4 47 14 0 11 21 14 103 14 57
0 137 7 182 17 44 9 98 19 120 22 22 3 50 13 64 21 13 9 41 17 63 18 57 3 88
13 88 27 0 9 18 13 56 14 33 1 63 8 72 16 10 8 22 12 29 10 6 -2 14 1 18 6 3
6 17 11 29 11 13 0 29 7 36 15 7 9 20 13 28 10 9 -3 18 -2 21 2 9 11 99 53
115 53 8 0 17 7 20 15 3 9 11 15 18 14 19 -2 58 12 58 21 0 5 32 23 70 41 39
17 70 38 70 45 0 8 11 14 25 14 14 0 29 8 35 20 6 11 19 20 30 20 11 0 24 9
30 20 6 11 18 20 26 20 9 0 28 12 42 28 15 15 38 33 52 40 14 7 38 31 54 53
17 21 35 39 40 39 6 0 22 16 36 35 14 19 28 35 32 35 10 0 178 168 178 178 0
4 25 38 55 75 30 36 55 71 55 77 0 5 8 18 18 28 19 19 68 97 92 147 8 17 20
38 28 47 19 23 48 74 77 136 14 28 29 52 35 52 5 0 10 6 10 13 0 19 24 67 33
67 5 0 5 5 2 11 -4 5 0 18 8 27 18 22 122 233 122 250 0 7 5 16 10 20 14 10
35 49 35 65 0 7 8 28 18 47 9 19 24 55 31 80 8 25 19 51 24 57 5 7 7 22 4 34
-3 12 0 22 9 26 8 3 14 17 14 32 0 14 4 32 9 40 12 19 3 41 -18 41 -9 0 -21 4
-26 9 -18 16 -98 23 -349 27 -137 2 -251 6 -255 9 -3 3 1 16 9 28 16 26 17 28
109 216 39 79 71 152 71 162 0 10 5 19 11 19 6 0 8 7 5 15 -3 9 1 18 9 21 8 4
15 14 15 23 0 9 14 43 30 76 16 33 30 68 30 77 0 9 5 20 11 24 6 3 8 17 5 30
-5 18 -2 24 10 24 12 0 15 7 12 25 -3 14 -1 28 3 31 5 3 9 14 9 24 0 10 6 25
14 33 10 9 11 18 5 24 -6 6 -2 18 11 33 11 12 23 45 26 71 4 27 10 49 15 49 5
0 9 11 9 23 0 13 3 27 7 31 12 12 33 80 33 109 0 15 3 27 8 27 9 0 32 72 32
100 0 11 5 20 10 20 6 0 10 11 10 24 0 14 5 28 10 31 6 3 10 17 10 30 0 13 5
27 10 30 6 3 10 21 10 39 0 18 3 36 7 40 12 12 33 80 33 108 0 15 5 30 11 33
6 4 8 14 4 22 -3 9 1 23 9 32 7 9 16 32 19 51 3 19 10 55 16 80 6 25 13 59 15
75 5 39 35 165 41 175 3 4 0 22 -6 39 -10 27 -9 34 6 44 12 10 17 29 17 80 2
85 -12 104 -57 79z m-761 -1124 c-3 -24 -12 -81 -20 -128 -8 -47 -19 -110 -24
-140 -6 -30 -15 -75 -21 -100 -6 -25 -13 -62 -16 -83 -3 -20 -9 -40 -14 -43
-5 -3 -9 -16 -9 -29 0 -13 -4 -27 -10 -30 -5 -3 -10 -19 -10 -35 0 -16 -4 -32
-10 -35 -5 -3 -10 -17 -10 -30 0 -13 -4 -27 -10 -30 -5 -3 -10 -15 -10 -25 0
-11 -9 -35 -20 -55 -11 -20 -20 -42 -20 -50 0 -8 -9 -29 -20 -47 -11 -18 -20
-43 -20 -55 0 -13 -3 -23 -8 -23 -4 0 -13 -15 -20 -32 -26 -65 -94 -194 -111
-211 -6 -6 -11 -17 -11 -25 0 -40 -99 -116 -138 -106 -11 3 -23 1 -26 -5 -4
-6 -25 -11 -46 -11 -21 0 -42 -4 -45 -10 -3 -5 -17 -10 -30 -10 -13 0 -27 -4
-30 -10 -3 -5 -16 -10 -28 -10 -13 0 -32 -7 -43 -15 -12 -8 -24 -12 -26 -9 -7
6 -176 -55 -184 -67 -3 -5 -13 -9 -23 -9 -20 0 -255 -117 -300 -149 -16 -12
-34 -21 -40 -21 -6 0 -11 -4 -11 -8 0 -5 -12 -15 -27 -23 -16 -8 -41 -26 -58
-41 -16 -16 -34 -28 -39 -28 -23 0 -356 -354 -356 -379 0 -5 -16 -23 -35 -40
-19 -17 -35 -35 -35 -41 0 -6 -5 -16 -10 -23 -16 -18 -53 -79 -70 -112 -8 -16
-23 -37 -32 -47 -10 -10 -18 -24 -18 -31 0 -7 -9 -18 -21 -25 -11 -7 -19 -19
-16 -26 6 -14 -37 -59 -47 -49 -11 11 -6 23 9 23 8 0 15 9 15 20 0 11 5 20 10
20 6 0 10 6 10 13 0 11 69 156 80 167 3 3 16 28 30 55 14 28 27 52 30 55 10
10 41 65 47 83 3 9 9 17 14 17 5 0 9 9 9 20 0 11 4 20 8 20 5 0 14 16 22 35 8
20 22 43 32 52 10 9 18 22 18 28 0 7 7 18 16 26 9 7 23 30 31 51 8 21 18 38
22 38 4 0 15 15 25 33 39 73 96 157 107 157 5 0 9 8 9 18 0 11 9 27 20 37 11
10 20 23 20 30 0 7 9 20 20 30 11 10 20 24 20 32 0 7 4 13 9 13 5 0 14 14 21
30 7 17 20 36 30 43 9 7 29 32 45 57 15 25 31 47 34 50 4 3 31 38 60 78 30 39
58 72 62 72 5 0 9 9 9 19 0 11 13 29 29 40 16 11 36 36 45 55 9 20 24 41 34
48 9 7 38 38 64 68 26 30 65 75 87 100 23 25 41 50 41 57 0 6 9 15 20 18 11 3
20 12 20 20 0 7 7 15 15 19 8 3 15 12 15 21 0 8 4 15 10 15 13 0 300 284 300
296 0 5 13 15 29 22 16 7 47 29 68 49 21 19 54 47 73 61 19 15 49 38 66 52 18
14 42 33 55 43 13 9 38 28 54 40 17 13 37 27 45 30 8 4 29 16 45 26 17 11 37
20 46 20 9 1 19 8 23 16 3 8 17 15 31 15 24 0 25 -2 19 -42z m-66 -1800 c2
-30 -1 -48 -7 -48 -6 0 -11 -13 -11 -30 0 -16 -4 -30 -8 -30 -4 0 -13 -21 -21
-47 -7 -27 -26 -75 -42 -107 -16 -32 -29 -64 -29 -70 0 -6 -14 -29 -30 -50
-17 -22 -30 -46 -30 -53 0 -19 -22 -55 -42 -71 -10 -7 -18 -19 -18 -26 0 -7
-9 -21 -20 -31 -11 -10 -20 -23 -20 -29 0 -17 -232 -252 -256 -260 -12 -4 -32
-20 -44 -36 -13 -17 -30 -30 -38 -30 -8 0 -35 -17 -61 -39 -25 -21 -61 -42
-79 -46 -18 -4 -36 -13 -39 -21 -3 -8 -14 -14 -24 -14 -10 0 -24 -9 -31 -20
-7 -11 -19 -20 -26 -20 -8 0 -26 -8 -40 -18 -24 -16 -90 -49 -234 -115 -27
-12 -50 -29 -53 -37 -3 -8 -19 -16 -35 -17 -17 -1 -43 -11 -58 -21 -15 -10
-43 -25 -62 -32 -19 -8 -37 -16 -40 -19 -5 -6 -51 -25 -107 -45 -18 -6 -33
-17 -33 -24 0 -7 -4 -11 -9 -8 -5 4 -38 -8 -73 -25 -64 -31 -77 -37 -135 -59
-18 -7 -33 -16 -33 -21 0 -4 -16 -11 -35 -15 -19 -3 -39 -13 -43 -21 -5 -8
-28 -17 -51 -20 -24 -3 -45 -12 -48 -19 -3 -8 -9 -12 -13 -9 -5 3 -11 1 -15
-5 -3 -5 -15 -10 -26 -10 -10 0 -19 -7 -19 -15 0 -9 -6 -15 -12 -14 -12 2 -25
-2 -75 -21 -16 -7 -23 -5 -27 6 -9 23 1 32 39 40 18 3 36 12 39 19 3 8 22 21
43 31 21 10 46 27 56 38 10 12 24 21 30 22 24 2 67 24 67 34 0 5 11 12 24 16
14 3 32 14 42 25 9 10 23 19 31 19 7 0 13 5 13 10 0 6 12 16 28 23 15 6 48 26
73 44 26 18 51 33 57 33 6 0 16 9 22 20 6 11 20 20 30 20 11 0 20 4 20 8 0 5
12 15 27 23 15 8 39 24 53 36 39 35 119 93 128 93 4 0 18 12 31 25 13 14 27
25 32 25 4 0 23 13 41 29 107 96 147 130 182 155 21 16 58 48 82 72 24 24 47
44 52 44 21 0 479 478 491 512 2 7 26 34 52 60 27 27 49 56 49 64 0 8 7 17 15
20 9 4 27 26 41 50 14 24 29 44 33 44 4 0 15 14 25 30 l18 31 91 -3 92 -3 3
-47z"/>
<path d="M2035 5939 c-16 -25 -3 -190 25 -324 6 -27 15 -73 19 -102 5 -28 13
-58 17 -65 8 -13 10 -20 20 -81 3 -20 10 -40 15 -43 5 -3 9 -18 9 -34 0 -16 4
-31 9 -34 5 -3 12 -30 16 -61 3 -30 11 -57 16 -60 5 -4 9 -19 9 -34 0 -15 3
-31 7 -35 11 -10 33 -79 33 -103 0 -12 5 -25 10 -28 6 -3 10 -19 10 -35 0 -16
5 -32 10 -35 6 -3 10 -15 10 -26 0 -10 5 -29 12 -42 25 -49 28 -58 28 -82 0
-14 4 -25 9 -25 5 0 11 -12 14 -27 8 -46 41 -151 68 -218 4 -11 12 -36 18 -55
12 -44 34 -103 41 -110 5 -5 26 -71 37 -120 3 -14 12 -28 19 -33 7 -4 11 -14
8 -21 -3 -8 4 -16 18 -19 17 -5 20 -9 11 -18 -7 -7 -8 -18 -3 -28 5 -9 16 -32
24 -51 17 -37 30 -59 56 -100 9 -14 20 -41 24 -60 8 -42 28 -90 38 -90 8 0 32
-50 43 -88 4 -14 2 -24 -8 -27 -7 -3 -119 -8 -248 -10 -285 -5 -342 -10 -365
-36 -15 -17 -16 -24 -6 -53 7 -18 12 -41 12 -52 0 -10 7 -27 15 -37 7 -11 11
-25 8 -33 -3 -8 1 -14 11 -14 18 0 22 -15 6 -25 -5 -3 -7 -12 -4 -20 4 -8 10
-12 15 -9 5 3 9 -6 9 -20 0 -14 4 -27 9 -30 5 -4 12 -24 16 -47 4 -22 13 -43
20 -46 8 -2 11 -11 8 -19 -3 -7 2 -16 10 -20 8 -3 13 -13 10 -24 -3 -10 0 -21
6 -24 6 -4 11 -16 11 -27 0 -10 3 -19 8 -19 4 0 15 -17 25 -37 19 -41 44 -87
70 -127 9 -14 17 -32 17 -41 0 -8 3 -15 8 -15 4 0 18 -25 32 -55 14 -30 28
-55 33 -55 4 0 7 -9 7 -19 0 -11 4 -22 9 -26 6 -3 22 -31 37 -63 15 -31 34
-65 42 -74 8 -10 24 -35 36 -57 30 -56 125 -192 150 -216 12 -11 25 -28 29
-38 3 -9 11 -17 17 -17 5 0 10 -7 10 -15 0 -8 20 -34 45 -58 25 -25 45 -50 45
-56 0 -5 9 -15 20 -21 11 -6 20 -17 20 -24 0 -8 9 -16 20 -19 11 -3 20 -12 20
-21 0 -9 8 -16 18 -16 9 0 23 -9 30 -20 7 -11 19 -20 27 -20 8 0 15 -7 15 -16
0 -9 9 -18 20 -21 11 -3 20 -11 20 -17 0 -7 11 -19 25 -26 14 -7 25 -17 25
-22 0 -4 5 -8 11 -8 10 0 46 -25 89 -62 40 -34 80 -58 98 -58 11 0 22 -6 25
-14 6 -14 44 -39 80 -52 9 -3 17 -10 17 -15 0 -5 9 -9 19 -9 11 0 21 -3 23 -7
6 -14 92 -52 131 -59 20 -3 37 -10 37 -15 0 -13 50 -32 76 -30 12 1 24 -5 27
-13 4 -9 15 -16 26 -16 11 0 23 -4 26 -10 3 -5 15 -10 26 -10 10 0 19 -4 19
-10 0 -5 14 -10 30 -10 17 0 38 -4 48 -9 26 -13 82 -29 132 -36 25 -4 57 -13
71 -21 15 -7 64 -15 109 -17 49 -2 85 -8 89 -15 7 -12 121 -31 216 -37 22 -1
51 -5 65 -8 65 -16 482 -29 495 -15 4 4 3 13 -1 20 -4 7 -7 26 -6 43 3 26 -11
44 -113 143 -63 63 -115 119 -115 124 0 6 -35 46 -78 88 -80 79 -128 133 -134
150 -2 5 -40 47 -85 93 -46 46 -83 88 -83 92 0 5 -53 60 -117 124 -65 64 -116
118 -114 121 2 3 -5 10 -16 15 -11 6 -18 16 -16 22 3 7 -7 15 -21 19 -14 3
-26 12 -26 20 0 8 -27 42 -60 76 -33 33 -60 65 -60 70 0 12 -82 93 -103 101
-9 3 -14 12 -11 20 6 16 -24 52 -51 61 -21 6 -45 48 -45 78 0 12 8 18 24 18
14 0 27 -4 30 -9 3 -5 21 -12 40 -15 22 -4 33 -11 30 -19 -2 -7 10 -18 28 -26
18 -8 42 -22 53 -31 11 -9 27 -20 35 -24 29 -13 60 -33 79 -50 11 -10 25 -15
31 -11 7 4 14 -2 17 -14 3 -11 15 -23 26 -27 11 -4 35 -19 51 -35 17 -16 39
-29 49 -29 10 0 21 -8 24 -17 8 -20 54 -62 68 -63 6 0 29 -18 50 -40 21 -22
45 -40 52 -40 7 0 17 -9 23 -20 6 -11 15 -20 20 -20 12 0 60 -48 60 -60 0 -5
9 -12 20 -15 11 -3 20 -11 20 -16 0 -5 45 -54 100 -109 55 -54 100 -101 100
-105 0 -3 19 -26 42 -50 22 -25 46 -53 52 -64 21 -35 80 -116 88 -119 4 -2 8
-10 8 -17 0 -8 9 -19 20 -25 11 -6 20 -16 20 -23 0 -7 20 -52 44 -101 30 -60
47 -83 52 -74 47 73 54 101 54 218 0 64 -4 120 -10 126 -5 5 -15 45 -21 89 -6
44 -15 88 -20 97 -5 10 -9 28 -9 40 0 23 -16 78 -34 117 -6 13 -11 29 -11 35
-1 23 -18 81 -26 92 -5 6 -12 33 -16 60 -3 27 -15 64 -25 82 -10 18 -18 46
-18 62 0 17 -4 30 -10 30 -5 0 -10 9 -10 20 0 11 -4 20 -10 20 -5 0 -10 11
-10 24 0 14 -4 28 -10 31 -5 3 -10 15 -10 26 0 10 -4 27 -9 37 -5 9 -14 31
-21 47 -7 17 -16 38 -21 47 -5 10 -9 25 -9 33 0 8 -4 23 -9 33 -5 9 -14 31
-21 47 -7 17 -16 38 -21 47 -5 10 -9 25 -9 33 0 8 -4 23 -8 33 -5 9 -19 38
-32 64 -12 26 -20 54 -17 62 4 9 -1 17 -11 20 -11 4 -18 18 -19 38 -1 17 -9
36 -18 40 -8 5 -15 19 -15 31 0 12 -11 44 -25 71 -14 27 -25 57 -25 67 0 9 -7
20 -16 23 -9 4 -14 13 -10 21 3 9 0 15 -8 15 -9 0 -17 16 -21 40 -4 22 -11 40
-16 40 -5 0 -9 9 -9 20 0 11 -4 20 -10 20 -5 0 -10 8 -10 19 0 10 -11 30 -25
45 -14 15 -23 32 -20 37 4 5 0 12 -9 15 -8 3 -12 12 -9 20 3 7 -2 17 -11 20
-9 3 -16 12 -16 20 0 8 -18 44 -40 80 -22 36 -40 69 -40 73 0 5 -9 16 -20 26
-11 10 -20 24 -20 31 0 7 -11 21 -25 32 -14 11 -25 23 -25 27 0 5 -11 23 -25
41 -14 18 -25 37 -25 41 0 5 -13 22 -30 38 -16 16 -30 34 -30 40 0 6 -13 24
-30 40 -16 16 -30 34 -30 41 0 7 -18 27 -40 45 -22 18 -43 41 -46 53 -8 25
-81 100 -106 109 -10 3 -18 13 -18 22 0 8 -5 15 -10 15 -6 0 -15 11 -20 25 -5
14 -14 25 -20 25 -5 0 -10 6 -10 14 0 16 -27 29 -43 19 -6 -4 -8 0 -4 11 5 12
-17 39 -80 101 -48 47 -91 85 -95 85 -4 0 -16 8 -26 18 -10 9 -39 36 -65 60
-26 23 -47 46 -47 50 0 11 -44 52 -56 52 -5 0 -33 23 -63 50 -29 28 -57 50
-62 50 -5 0 -9 4 -9 10 0 5 -11 12 -24 16 -13 3 -26 14 -29 25 -3 10 -16 23
-29 28 -12 5 -34 21 -47 35 -14 14 -31 26 -38 26 -8 0 -29 15 -47 33 -51 50
-107 87 -132 87 -16 0 -22 4 -18 15 4 9 -3 16 -20 21 -14 3 -26 9 -26 14 0 11
-198 140 -215 140 -9 0 -18 7 -21 15 -4 9 -25 25 -48 36 -22 11 -56 31 -75 44
-19 14 -42 25 -52 25 -11 0 -19 6 -19 13 -1 12 -85 58 -106 57 -6 0 -17 7 -24
15 -7 8 -24 21 -39 28 -14 8 -42 23 -61 34 -19 11 -41 18 -47 16 -7 -3 -13 0
-13 6 0 13 -182 101 -209 101 -11 0 -23 -5 -26 -11z m939 -1130 c23 -19 87
-59 95 -59 4 0 18 -12 32 -26 13 -15 36 -34 51 -43 75 -47 233 -187 415 -368
112 -111 203 -206 203 -211 0 -5 29 -39 65 -77 36 -37 65 -73 65 -80 0 -7 14
-25 32 -40 17 -15 47 -48 67 -73 19 -26 39 -50 44 -53 5 -4 14 -15 20 -27 7
-11 60 -84 120 -161 59 -78 107 -146 107 -152 0 -5 6 -12 14 -15 7 -3 22 -21
32 -40 10 -19 22 -34 27 -34 4 0 12 -12 17 -26 6 -15 20 -38 31 -53 32 -40 89
-132 89 -142 0 -5 5 -9 10 -9 6 0 10 -7 10 -15 0 -9 9 -25 20 -37 11 -12 20
-28 20 -35 0 -7 4 -13 8 -13 5 0 15 -12 22 -27 8 -16 24 -41 35 -58 12 -16 32
-50 46 -75 13 -25 29 -48 35 -52 7 -4 15 -20 19 -35 3 -16 15 -37 24 -48 10
-11 24 -35 32 -52 8 -18 20 -32 27 -30 10 1 15 -11 18 -38 2 -22 10 -44 17
-50 8 -6 17 -24 21 -42 4 -17 16 -39 26 -48 10 -9 22 -30 25 -46 4 -16 11 -31
16 -34 12 -8 11 -45 -1 -45 -6 0 -13 8 -16 18 -3 9 -9 24 -14 32 -5 8 -19 33
-30 55 -12 22 -30 49 -39 60 -10 11 -38 49 -61 85 -24 36 -56 80 -72 98 -15
18 -28 38 -28 44 0 7 -18 29 -40 49 -22 21 -40 42 -40 47 0 5 -18 27 -40 48
-22 22 -40 47 -40 56 0 9 -10 20 -22 23 -23 7 -40 22 -105 88 -20 20 -44 37
-55 37 -10 0 -18 6 -18 13 0 8 -12 20 -27 28 -16 8 -41 26 -58 41 -16 16 -36
28 -42 28 -7 0 -13 5 -13 10 0 6 -7 10 -15 10 -9 0 -25 8 -36 18 -10 11 -29
23 -42 29 -77 36 -123 58 -127 63 -11 12 -51 30 -65 30 -8 0 -29 8 -48 19 -18
10 -49 22 -68 26 -18 4 -43 13 -54 21 -11 7 -38 16 -60 20 -22 4 -42 10 -45
14 -7 10 -154 50 -183 50 -13 0 -27 3 -31 8 -4 4 -32 14 -62 22 -31 9 -55 20
-55 25 0 6 -12 24 -27 40 -16 17 -34 44 -42 60 -8 17 -21 38 -30 49 -8 10 -13
19 -11 20 6 2 -34 86 -41 86 -5 0 -8 8 -8 18 0 9 -9 28 -20 42 -11 14 -20 33
-20 42 0 19 -57 156 -72 172 -4 6 -8 20 -8 32 0 13 -4 26 -10 29 -5 3 -10 15
-10 26 0 10 -4 27 -9 37 -5 9 -21 64 -36 122 -14 58 -30 121 -36 141 -5 20 -9
50 -9 67 0 17 -4 34 -10 37 -5 3 -10 28 -10 55 0 27 -4 52 -10 55 -5 3 -10 33
-10 66 0 32 -5 68 -12 78 -6 10 -8 25 -5 34 5 13 15 11 68 -15 35 -17 67 -35
73 -39z m126 -1744 c0 -9 7 -18 15 -21 8 -4 15 -11 15 -18 0 -6 20 -33 45 -60
25 -27 45 -54 45 -59 0 -11 57 -80 137 -165 35 -36 65 -73 68 -81 6 -18 372
-384 420 -420 17 -12 51 -43 77 -67 26 -24 50 -44 55 -44 4 -1 31 -23 58 -50
28 -28 55 -50 61 -50 5 0 25 -16 44 -35 19 -19 39 -35 46 -35 6 0 18 -7 25
-16 8 -9 30 -27 49 -40 19 -13 55 -40 80 -59 25 -19 54 -39 65 -45 11 -6 40
-26 65 -45 25 -19 52 -38 60 -42 8 -4 35 -21 60 -37 63 -43 82 -55 108 -66 12
-5 25 -17 28 -25 4 -8 12 -15 20 -15 8 0 22 -8 32 -18 20 -20 49 -35 69 -37 6
0 20 -9 30 -21 10 -11 35 -28 55 -37 20 -10 40 -22 44 -28 6 -10 50 -32 69
-33 17 -2 18 -46 1 -46 -8 0 -18 5 -21 10 -3 6 -15 10 -26 10 -10 0 -19 5 -19
11 0 6 -7 8 -15 5 -9 -3 -18 1 -21 9 -4 8 -14 15 -25 15 -10 0 -39 11 -65 25
-26 14 -55 25 -65 25 -11 0 -19 4 -19 8 0 12 -50 33 -61 26 -5 -3 -12 2 -15
10 -3 9 -10 16 -16 16 -13 0 -122 52 -128 61 -3 4 -18 11 -33 14 -15 4 -30 11
-33 16 -3 5 -14 9 -25 9 -10 0 -19 5 -19 10 0 6 -9 10 -19 10 -18 0 -122 47
-223 100 -20 11 -44 20 -53 20 -9 0 -18 7 -21 15 -3 8 -23 19 -44 25 -21 6
-43 17 -50 25 -7 8 -17 15 -23 15 -14 0 -201 93 -205 103 -2 4 -12 7 -23 7
-10 0 -19 3 -19 8 0 4 -22 17 -50 30 -27 13 -50 27 -50 32 0 6 -7 10 -16 10
-9 0 -38 18 -64 40 -26 22 -51 40 -55 40 -7 0 -108 80 -169 134 -16 14 -33 26
-38 26 -4 0 -8 7 -8 15 0 8 -7 15 -15 15 -8 0 -15 5 -15 10 0 6 -25 36 -55 66
-30 31 -53 59 -50 63 2 5 -7 19 -21 32 -14 13 -34 43 -45 66 -10 23 -23 45
-29 48 -5 3 -26 41 -45 83 -20 42 -39 84 -44 92 -4 8 -18 48 -30 87 -13 40
-27 75 -32 78 -5 4 -9 16 -9 29 0 12 -3 26 -7 29 -3 4 -7 17 -9 30 -1 12 -5
32 -9 45 -7 22 -7 22 99 22 89 0 106 -3 106 -15z"/>
<path d="M8328 1548 c9 -9 15 -9 24 0 9 9 7 12 -12 12 -19 0 -21 -3 -12 -12z"/>
<path d="M8381 1556 c2 -2 42 -7 88 -10 46 -3 86 -8 89 -11 3 -3 -41 -5 -97
-5 -57 0 -112 -5 -123 -11 -17 -9 -24 -8 -33 5 -15 19 -66 21 -130 4 -48 -13
-60 -28 -22 -28 13 0 32 -6 42 -14 19 -13 18 -14 -8 -13 -15 1 -27 5 -27 10 0
4 -16 7 -35 7 -24 0 -35 5 -35 15 0 20 -48 19 -74 0 -11 -8 -36 -15 -55 -16
-20 -1 -47 -5 -61 -9 -24 -8 -23 -8 8 -9 17 -1 32 -5 32 -10 0 -5 -15 -13 -32
-16 -18 -4 -36 -12 -39 -17 -4 -7 -9 -6 -13 1 -4 6 -3 11 3 11 6 0 8 7 5 15
-8 20 -29 19 -49 -2 -13 -12 -21 -14 -34 -6 -12 7 -20 7 -29 -3 -17 -19 -15
-29 3 -14 9 8 15 9 15 2 0 -25 -39 -32 -93 -17 -19 5 -33 3 -45 -7 -28 -24
-46 -33 -37 -18 6 10 3 11 -16 6 -13 -4 -34 -10 -46 -13 -13 -3 -23 -9 -23
-14 0 -16 -54 -35 -107 -37 -35 -2 -47 -22 -13 -22 22 0 27 -16 8 -23 -7 -2
14 -5 47 -5 33 0 67 4 76 9 10 5 20 4 27 -3 7 -7 15 -8 19 -4 4 4 1 11 -7 17
-10 6 11 7 58 3 60 -6 75 -4 85 9 13 17 153 31 163 16 3 -5 51 -8 107 -7 l102
2 -95 3 c-52 2 -99 8 -104 13 -6 6 -23 10 -38 10 -15 0 -28 5 -28 10 0 13 53
13 67 -1 11 -11 613 -14 658 -3 19 5 25 2 25 -9 0 -9 -8 -18 -17 -21 -10 -3 0
-3 22 0 27 3 47 0 60 -10 26 -20 46 -20 39 -1 -4 9 0 15 9 15 8 0 17 6 20 13
2 6 8 9 12 5 5 -5 0 -17 -10 -28 -18 -20 -18 -20 28 -20 27 0 47 -5 50 -12 3
-10 9 -8 24 5 25 22 44 22 36 0 -5 -12 -2 -15 10 -10 9 3 23 -1 32 -10 14 -13
20 -14 41 -3 21 12 26 11 39 -6 13 -17 14 -17 15 -1 0 20 30 24 30 3 0 -7 11
-21 25 -30 21 -14 25 -14 25 -2 0 8 -8 19 -17 25 -10 5 -14 13 -10 18 5 4 15
-1 23 -12 14 -19 16 -19 28 -2 17 21 32 22 40 1 4 -11 -1 -22 -14 -31 -27 -19
-25 -32 3 -26 30 7 46 29 40 56 -3 13 -1 18 4 11 4 -6 17 -16 28 -22 19 -11
19 -11 -2 -12 -13 0 -23 -6 -23 -13 0 -14 76 -39 122 -40 23 0 26 -3 17 -18
-12 -23 -29 -24 -55 -4 -22 16 -38 20 -29 6 10 -18 68 -41 87 -35 10 3 18 1
18 -5 0 -6 -5 -11 -11 -11 -6 0 -3 -7 5 -16 15 -14 18 -14 33 2 14 13 18 14
22 3 2 -8 11 -20 20 -26 13 -11 14 -14 2 -22 -9 -6 4 -7 35 -4 36 3 45 2 34
-6 -8 -6 -26 -11 -40 -12 -14 0 -19 -3 -12 -6 15 -6 16 -33 1 -33 -6 0 -8 -9
-4 -20 7 -22 -5 -26 -22 -9 -14 14 -36 2 -27 -13 5 -8 -4 -9 -27 -5 -25 5 -30
4 -17 -3 9 -6 15 -17 12 -25 -8 -19 -24 -19 -24 0 0 10 -10 15 -30 15 -16 0
-30 -4 -30 -9 0 -5 9 -7 20 -4 14 4 20 0 20 -12 0 -13 -6 -15 -31 -10 -29 7
-31 5 -26 -14 3 -14 0 -21 -9 -21 -8 0 -14 -4 -14 -10 0 -5 -8 -10 -17 -10
-15 0 -14 2 3 14 18 14 18 15 -9 25 -36 14 -37 14 -31 -4 8 -19 -13 -19 -32 0
-13 13 -17 12 -34 -5 -11 -11 -27 -20 -36 -20 -10 0 -14 -6 -10 -15 4 -10 -1
-15 -17 -16 -12 -1 -29 -2 -38 -3 -9 -1 -23 -7 -32 -14 -18 -15 -37 -8 -37 14
0 10 -12 14 -42 13 -32 -1 -37 -3 -20 -7 13 -4 23 -11 23 -17 0 -15 -32 -19
-41 -5 -5 8 -14 8 -35 -2 -22 -10 -29 -10 -33 0 -4 13 -52 17 -52 3 0 -4 -42
-11 -92 -15 -51 -4 -97 -11 -102 -17 -6 -5 -2 -9 12 -9 21 0 30 -14 15 -23
-14 -7 -74 13 -68 23 4 6 -10 9 -32 9 -23 -1 -29 -3 -15 -6 12 -2 22 -8 22
-13 0 -5 10 -18 22 -30 17 -15 18 -20 6 -20 -17 0 -79 24 -90 35 -12 12 -77
13 -75 1 1 -6 -13 -12 -32 -14 -27 -3 -33 0 -28 12 6 14 -8 16 -111 14 l-117
-2 95 -6 95 -6 -75 -3 c-41 -2 -178 -3 -305 -4 -126 0 -195 -2 -152 -4 130 -6
86 -18 -68 -18 -108 0 -148 3 -154 13 -5 9 -32 12 -87 12 -73 -1 -147 4 -217
15 -17 3 -26 1 -22 -5 4 -6 -19 -9 -62 -8 l-68 1 60 7 c52 6 46 7 -48 8 -71 1
-106 -2 -102 -8 7 -12 -22 -26 -33 -16 -3 4 0 11 8 16 11 7 5 10 -22 10 -20 0
-38 -4 -40 -9 -4 -12 -128 -2 -128 10 0 4 21 10 48 12 l47 3 -57 2 c-37 1 -58
-2 -61 -10 -3 -9 -12 -6 -29 10 -25 23 -58 30 -58 12 0 -5 -7 -10 -15 -10 -8
0 -15 5 -15 10 0 6 -18 10 -41 10 -31 0 -40 -3 -36 -14 4 -9 -11 -6 -45 11
-27 13 -58 21 -68 18 -10 -3 -29 0 -44 6 -20 10 -29 9 -42 -2 -9 -8 -32 -15
-51 -15 -19 -1 -37 -4 -40 -7 -10 -11 7 -39 21 -34 8 3 17 0 20 -8 3 -8 0 -16
-7 -18 -7 -2 -8 -8 -4 -13 4 -4 16 -3 25 2 11 7 26 8 41 3 19 -8 22 -6 17 7
-5 13 -1 14 24 9 21 -5 39 -2 55 9 26 17 55 21 55 8 0 -5 -16 -14 -35 -22 -19
-8 -35 -17 -35 -21 0 -4 -8 -10 -17 -12 -10 -2 -3 -2 15 0 23 3 34 -1 38 -12
3 -8 15 -15 27 -15 20 0 20 1 -3 25 l-23 25 22 0 c12 0 35 -14 50 -30 18 -20
41 -33 67 -37 21 -3 42 -11 46 -17 5 -8 13 -7 28 2 23 14 44 16 36 3 -3 -5 1
-11 8 -14 8 -3 16 -1 18 5 3 7 12 6 29 -4 38 -25 76 -30 83 -13 8 22 34 18 60
-10 13 -14 30 -25 37 -24 8 0 5 4 -6 9 l-20 9 20 2 c11 1 36 3 55 4 19 1 45 5
56 9 19 7 21 5 17 -18 -4 -17 -12 -26 -24 -26 -11 0 -19 5 -19 10 0 6 -11 10
-25 10 -14 0 -25 -4 -25 -9 0 -13 52 -23 193 -35 24 -2 53 -9 65 -15 18 -10
22 -9 22 4 0 8 -6 15 -14 15 -8 0 -16 6 -19 13 -4 9 -7 9 -18 0 -7 -7 -22 -13
-33 -12 -16 0 -12 5 14 16 26 11 39 12 52 4 10 -6 27 -11 38 -11 11 0 20 -4
20 -10 0 -5 9 -10 19 -10 10 0 22 -7 25 -16 3 -8 10 -13 15 -9 12 7 152 -15
168 -27 7 -6 13 -4 15 4 4 10 8 10 22 -1 9 -8 16 -10 14 -5 -2 5 2 9 7 9 5 0
9 -3 8 -7 -2 -5 15 -8 37 -8 23 0 40 5 40 11 0 8 4 9 13 0 8 -6 16 -9 19 -6 3
3 11 -1 18 -10 7 -9 27 -14 49 -14 l36 2 -37 6 c-26 4 -35 10 -30 18 6 9 17 9
47 0 26 -7 151 -12 344 -14 278 -2 305 -1 318 15 13 16 14 15 10 -5 -3 -13 -1
-23 3 -23 14 0 60 23 60 29 0 10 43 11 55 2 12 -11 95 -9 95 1 0 5 21 8 46 8
25 0 43 4 39 9 -7 13 12 24 26 15 8 -4 7 -9 -2 -15 -24 -15 7 -10 41 7 25 13
40 14 65 7 30 -10 35 -8 54 18 15 20 18 29 8 29 -7 0 -18 -5 -24 -11 -6 -6
-21 -9 -34 -6 -22 4 -21 4 4 6 18 1 26 5 21 12 -5 8 3 10 27 6 109 -20 214
-15 205 9 -3 9 4 16 20 20 13 3 29 15 35 25 9 17 39 27 39 13 0 -10 -28 -34
-39 -34 -6 0 -11 -4 -11 -9 0 -24 23 -19 69 13 45 32 61 36 61 15 0 -4 -9 -11
-20 -14 -11 -4 -17 -11 -14 -17 4 -6 10 -6 17 1 6 6 24 11 40 11 23 0 28 4 23
16 -4 12 -2 15 9 10 8 -3 15 -1 15 4 0 6 7 10 15 10 8 0 15 -4 15 -10 0 -16
27 -12 34 5 3 8 24 18 46 21 23 4 44 13 47 20 3 8 17 14 32 14 15 0 33 6 41
13 12 10 12 9 1 -5 -12 -16 -11 -18 12 -18 16 0 27 6 29 17 2 10 12 18 23 18
13 0 20 7 20 19 0 11 6 21 13 23 7 3 12 -5 12 -21 l0 -26 22 22 c20 20 23 21
26 5 2 -9 8 -17 14 -17 6 0 8 10 4 25 -7 29 -3 31 19 9 19 -20 42 -12 55 18 7
18 9 19 9 6 1 -22 27 -24 35 -2 3 9 13 14 20 11 8 -3 20 1 27 9 7 9 20 12 31
8 18 -5 19 -3 13 27 -7 29 -6 32 7 21 8 -6 18 -9 21 -5 12 11 7 23 -9 23 -8 0
-13 4 -10 9 3 5 15 7 25 4 14 -4 21 1 24 19 4 21 4 20 6 -4 1 -21 6 -28 22
-28 14 0 19 5 16 14 -3 8 1 17 9 20 10 4 14 -2 14 -19 0 -27 15 -42 23 -21 3
7 22 17 42 20 49 10 75 27 75 49 0 11 5 17 13 14 6 -2 11 -11 9 -18 -3 -11 -1
-11 9 -2 6 6 18 9 25 6 10 -4 12 0 8 10 -5 13 0 15 30 10 29 -4 36 -2 36 11 0
9 7 16 15 16 9 0 18 7 21 15 4 8 12 15 19 15 16 0 30 18 21 27 -3 3 -13 0 -23
-8 -15 -13 -16 -12 -9 6 14 34 12 49 -8 53 -11 2 -16 0 -12 -6 3 -6 1 -14 -5
-17 -6 -4 -13 2 -16 13 -9 34 -41 16 -46 -27 -2 -20 -3 -13 -2 14 3 48 2 50
-24 51 -44 2 -118 34 -130 57 -11 21 -11 20 -8 -5 5 -37 -9 -36 -28 2 -17 34
-40 41 -32 10 3 -13 0 -20 -9 -20 -8 0 -14 4 -14 9 0 5 -12 11 -27 13 -21 2
-28 8 -28 25 -1 36 -17 27 -21 -11 -2 -28 1 -35 17 -38 11 -2 19 -7 19 -13 -1
-11 -30 -8 -44 6 -5 4 -10 27 -11 50 -1 37 -4 43 -24 44 -13 1 -28 9 -33 18
-11 21 -28 22 -28 2 0 -8 -4 -15 -9 -15 -5 0 -11 7 -15 15 -3 8 -10 15 -16 15
-5 0 -10 -7 -10 -15 0 -8 -4 -15 -10 -15 -5 0 -10 11 -10 25 0 14 -4 25 -10
25 -5 0 -10 -5 -10 -10 0 -6 -8 -5 -20 2 -17 11 -26 10 -50 -4 -17 -10 -37
-15 -46 -11 -9 3 -20 0 -26 -8 -8 -11 -9 -10 -4 4 3 11 0 17 -9 17 -18 0 -20
16 -2 27 6 4 13 16 13 26 2 14 -3 16 -20 11 -11 -3 -27 -11 -33 -16 -9 -7 -13
-7 -13 0 0 6 5 12 12 14 21 7 -3 28 -33 28 -16 0 -29 5 -29 10 0 14 -28 12
-32 -2 -3 -8 -12 -5 -28 10 -25 23 -50 29 -50 12 0 -19 -32 -10 -37 10 -3 11
-14 20 -24 20 -12 0 -16 -5 -13 -15 9 -21 -10 -19 -31 5 -11 12 -31 20 -51 20
-18 0 -36 5 -39 10 -3 6 -13 10 -21 10 -11 0 -13 -6 -9 -20 5 -15 2 -20 -10
-20 -13 0 -16 6 -11 26 l7 26 -53 -7 c-29 -4 -64 -12 -77 -17 -13 -4 -26 -6
-29 -4 -11 11 21 35 51 39 18 2 5 4 -28 4 -33 -1 -70 5 -82 11 -12 7 -58 12
-105 11 -53 0 -76 -3 -63 -8 11 -5 50 -8 88 -7 37 1 67 -1 67 -5 0 -4 9 -11
20 -14 11 -3 20 -13 20 -21 0 -16 -16 -19 -25 -4 -3 6 -17 10 -31 10 -13 0
-24 -4 -24 -10 0 -5 -11 -10 -24 -10 -13 0 -26 -5 -28 -11 -2 -6 -13 -9 -23
-6 -19 5 -19 5 3 12 12 4 22 11 22 16 0 5 10 9 22 9 44 0 5 15 -44 17 -64 2
-138 24 -138 40 0 10 -35 13 -152 13 -83 0 -149 -2 -147 -4z m289 -22 c0 -2
-9 -4 -21 -4 -11 0 -18 4 -14 10 5 8 35 3 35 -6z m-429 -17 c-1 -12 -15 -9
-19 4 -3 6 1 10 8 8 6 -3 11 -8 11 -12z m-176 -17 c3 -5 2 -10 -4 -10 -5 0
-13 5 -16 10 -3 6 -2 10 4 10 5 0 13 -4 16 -10z m312 -6 c-3 -3 -12 -4 -19 -1
-8 3 -5 6 6 6 11 1 17 -2 13 -5z m346 -1 c-7 -2 -19 -2 -25 0 -7 3 -2 5 12 5
14 0 19 -2 13 -5z m-708 -13 c3 -5 1 -10 -4 -10 -6 0 -11 5 -11 10 0 6 2 10 4
10 3 0 8 -4 11 -10z m119 -35 c2 -7 -1 -12 -7 -10 -41 10 -57 19 -57 31 0 17
56 -1 64 -21z m161 15 c4 -6 -5 -10 -20 -10 -15 0 -24 4 -20 10 3 6 12 10 20
10 8 0 17 -4 20 -10z m80 0 c3 -5 1 -10 -4 -10 -6 0 -11 5 -11 10 0 6 2 10 4
10 3 0 8 -4 11 -10z m331 -6 c-3 -9 -6 -21 -7 -27 0 -7 -4 -3 -8 8 -9 22 -5
35 11 35 5 0 7 -7 4 -16z m424 6 c0 -5 -13 -10 -30 -10 -16 0 -30 5 -30 10 0
6 14 10 30 10 17 0 30 -4 30 -10z m-463 -6 c-3 -3 -12 -4 -19 -1 -8 3 -5 6 6
6 11 1 17 -2 13 -5z m-687 -13 c0 -5 -7 -11 -15 -15 -9 -3 -15 0 -15 9 0 8 7
15 15 15 8 0 15 -4 15 -9z m240 -1 c0 -5 -4 -10 -10 -10 -5 0 -10 5 -10 10 0
6 5 10 10 10 6 0 10 -4 10 -10z m1065 0 c-3 -5 -15 -10 -26 -10 -10 0 -19 5
-19 10 0 6 12 10 26 10 14 0 23 -4 19 -10z m-255 -4 c0 -2 -11 -6 -25 -8 -14
-3 -25 -1 -25 3 0 5 11 9 25 9 14 0 25 -2 25 -4z m-1120 -36 c0 -5 -7 -10 -15
-10 -8 0 -15 5 -15 10 0 6 7 10 15 10 8 0 15 -4 15 -10z m850 -9 c0 -15 -19
-23 -38 -16 -14 5 -14 7 -2 15 19 12 40 13 40 1z m-640 -11 c0 -5 -13 -8 -29
-7 -16 1 -27 5 -24 10 6 10 53 9 53 -3z m274 -2 c-3 -4 -32 -7 -64 -7 -33 1
-57 6 -54 11 3 5 32 8 64 7 33 -1 57 -6 54 -11z m132 3 c-8 -12 -116 -13 -116
-1 0 6 27 10 61 10 33 0 58 -4 55 -9z m999 -1 c-3 -5 -13 -10 -21 -10 -8 0
-14 5 -14 10 0 6 9 10 21 10 11 0 17 -4 14 -10z m-1725 -16 c0 -2 -12 -4 -26
-4 -14 0 -23 4 -20 9 6 8 46 4 46 -5z m-230 2 c0 -11 -19 -15 -25 -6 -3 5 1
10 9 10 9 0 16 -2 16 -4z m115 -6 c-3 -5 -13 -10 -21 -10 -17 0 -19 -17 -1
-23 8 -3 6 -7 -6 -12 -24 -10 -31 -1 -23 30 5 18 13 25 32 25 14 0 23 -4 19
-10z m-85 -20 c0 -5 -2 -10 -4 -10 -3 0 -8 5 -11 10 -3 6 -1 10 4 10 6 0 11
-4 11 -10z m1188 -7 c5 -18 -28 -29 -38 -12 -5 7 -6 17 -3 22 7 12 35 5 41
-10z m-1248 -7 c0 -9 -7 -12 -19 -9 -10 3 -22 0 -25 -6 -10 -16 -26 -14 -26 3
0 13 17 20 58 25 6 0 12 -5 12 -13z m-90 -6 c0 -5 -4 -10 -10 -10 -5 0 -10 5
-10 10 0 6 5 10 10 10 6 0 10 -4 10 -10z m2103 3 c-7 -2 -21 -2 -30 0 -10 3
-4 5 12 5 17 0 24 -2 18 -5z m-73 -13 c0 -5 -4 -10 -10 -10 -5 0 -10 5 -10 10
0 6 5 10 10 10 6 0 10 -4 10 -10z m117 -26 c-3 -3 -12 -4 -19 -1 -8 3 -5 6 6
6 11 1 17 -2 13 -5z m134 -5 c-16 -6 -28 -6 -35 1 -7 7 1 10 25 9 32 0 33 -1
10 -10z m-474 -15 c-3 -3 -12 -4 -19 -1 -8 3 -5 6 6 6 11 1 17 -2 13 -5z m14
-43 c-8 -5 -20 -7 -28 -4 -21 8 -15 13 15 13 20 0 23 -3 13 -9z m666 -83 c-3
-8 -6 -5 -6 6 -1 11 2 17 5 13 3 -3 4 -12 1 -19z m253 -8 c0 -5 -5 -10 -11
-10 -5 0 -7 5 -4 10 3 6 8 10 11 10 2 0 4 -4 4 -10z m-33 -6 c-3 -3 -12 -4
-19 -1 -8 3 -5 6 6 6 11 1 17 -2 13 -5z m-720 -29 c-7 -16 -37 -21 -37 -5 0
10 32 31 39 25 2 -2 1 -11 -2 -20z m813 -56 c0 -22 -4 -38 -8 -35 -8 5 -4 76
4 76 2 0 4 -18 4 -41z m77 9 c-3 -8 -6 -5 -6 6 -1 11 2 17 5 13 3 -3 4 -12 1
-19z m-887 -38 c0 -5 -2 -10 -4 -10 -3 0 -8 5 -11 10 -3 6 -1 10 4 10 6 0 11
-4 11 -10z m878 -14 c3 -12 -1 -17 -10 -14 -7 3 -15 13 -16 22 -3 12 1 17 10
14 7 -3 15 -13 16 -22z m-874 -27 c-3 -5 -10 -7 -15 -3 -5 3 -7 10 -3 15 3 5
10 7 15 3 5 -3 7 -10 3 -15z m616 -15 c0 -8 -4 -12 -10 -9 -5 3 -10 10 -10 16
0 5 5 9 10 9 6 0 10 -7 10 -16z m120 -4 c0 -14 -7 -20 -23 -20 -13 0 -28 -5
-33 -10 -8 -8 -15 -6 -24 4 -10 13 -9 17 4 22 9 3 22 4 30 1 8 -3 17 1 20 9 8
21 26 17 26 -6z m-915 -70 c3 -5 1 -10 -4 -10 -6 0 -11 5 -11 10 0 6 2 10 4
10 3 0 8 -4 11 -10z m45 -5 c0 -8 -4 -15 -9 -15 -13 0 -22 16 -14 24 11 11 23
6 23 -9z m-186 -34 c3 -5 0 -11 -8 -14 -15 -6 -26 1 -26 15 0 11 27 10 34 -1z
m136 -1 c0 -5 -7 -10 -15 -10 -8 0 -15 5 -15 10 0 6 7 10 15 10 8 0 15 -4 15
-10z m-62 -19 c10 -6 9 -10 -7 -14 -14 -3 -21 0 -21 9 0 16 9 18 28 5z m362
-11 c0 -5 -5 -10 -11 -10 -5 0 -7 5 -4 10 3 6 8 10 11 10 2 0 4 -4 4 -10z m70
-5 c0 -8 -7 -15 -15 -15 -8 0 -15 7 -15 15 0 8 7 15 15 15 8 0 15 -7 15 -15z
m-3250 -25 c0 -5 -21 -10 -47 -10 -35 0 -44 3 -33 10 20 13 80 13 80 0z m130
-5 c10 -12 10 -15 -4 -15 -9 0 -16 7 -16 15 0 8 2 15 4 15 2 0 9 -7 16 -15z
m2987 4 c-14 -8 -22 -8 -30 0 -8 8 -3 11 19 11 25 -1 27 -2 11 -11z m-2507
-39 c0 -5 -11 -10 -24 -10 -14 0 -28 5 -31 10 -4 6 7 10 24 10 17 0 31 -4 31
-10z m2545 0 c3 -5 1 -10 -4 -10 -6 0 -11 5 -11 10 0 6 2 10 4 10 3 0 8 -4 11
-10z m-1160 -20 c-3 -5 -15 -10 -25 -10 -10 0 -22 5 -25 10 -4 6 7 10 25 10
18 0 29 -4 25 -10z m-1848 -42 c-3 -7 -5 -2 -5 12 0 14 2 19 5 13 2 -7 2 -19
0 -25z m571 25 c-21 -2 -57 -2 -80 0 -24 2 -7 4 37 4 44 0 63 -2 43 -4z m349
-8 c13 -13 12 -15 -9 -11 -13 3 -31 5 -40 5 -28 1 -21 16 8 19 14 1 32 -5 41
-13z m736 8 c-23 -2 -64 -2 -90 0 -26 2 -7 3 42 3 50 0 71 -1 48 -3z m-460
-20 c-24 -2 -62 -2 -85 0 -24 2 -5 4 42 4 47 0 66 -2 43 -4z m-666 -38 c6 -14
9 -25 7 -25 -7 0 -48 24 -62 38 -11 10 -8 12 15 12 20 0 31 -7 40 -25z m1313
15 c0 -5 -11 -10 -25 -10 -14 0 -25 5 -25 10 0 6 11 10 25 10 14 0 25 -4 25
-10z m-1100 -10 c0 -5 -15 -10 -32 -10 -25 0 -29 3 -18 10 20 13 50 13 50 0z
m-507 -7 c-7 -2 -19 -2 -25 0 -7 3 -2 5 12 5 14 0 19 -2 13 -5z m374 -19 c-3
-3 -12 -4 -19 -1 -8 3 -5 6 6 6 11 1 17 -2 13 -5z m50 0 c-3 -3 -12 -4 -19 -1
-8 3 -5 6 6 6 11 1 17 -2 13 -5z m50 -20 c-3 -3 -12 -4 -19 -1 -8 3 -5 6 6 6
11 1 17 -2 13 -5z m1566 -1 c-7 -2 -21 -2 -30 0 -10 3 -4 5 12 5 17 0 24 -2
18 -5z m254 1 c-3 -3 -12 -4 -19 -1 -8 3 -5 6 6 6 11 1 17 -2 13 -5z m-1990
-20 c-3 -3 -12 -4 -19 -1 -8 3 -5 6 6 6 11 1 17 -2 13 -5z m228 -14 c3 -5 -1
-10 -10 -10 -9 0 -13 5 -10 10 3 6 8 10 10 10 2 0 7 -4 10 -10z"/>
<path d="M8728 1553 c6 -2 18 -2 25 0 6 3 1 5 -13 5 -14 0 -19 -2 -12 -5z"/>
<path d="M2876 1432 c-2 -1 -45 -5 -97 -8 -90 -5 -103 -5 -131 -3 -30 3 -154
-14 -164 -23 -8 -5 -18 -3 -27 7 -18 17 -43 20 -52 5 -3 -5 -25 -10 -47 -10
-40 0 -41 0 -23 -20 10 -11 13 -20 7 -20 -7 0 -12 3 -12 8 0 13 -168 8 -181
-5 -11 -11 -10 -13 2 -13 12 0 12 -2 -1 -10 -19 -12 -67 -13 -75 -1 -3 5 5 12
17 14 22 4 22 4 -2 5 -14 1 -36 -5 -50 -13 -14 -8 -19 -14 -12 -15 6 0 12 -4
12 -10 0 -5 -3 -9 -7 -9 -28 4 -45 -2 -39 -16 7 -20 -27 -20 -44 0 -10 13 -7
17 21 30 33 14 33 14 7 15 -15 0 -31 -7 -36 -17 -7 -12 -17 -14 -42 -9 l-33 6
24 -21 c17 -16 19 -20 6 -16 -10 4 -40 2 -68 -4 -37 -8 -53 -8 -64 1 -11 9
-21 9 -45 -1 -30 -14 -40 -29 -18 -29 18 0 0 -13 -23 -17 -14 -2 -23 3 -26 17
-6 24 -12 24 -37 5 -19 -14 -19 -15 8 -15 22 0 27 -4 22 -16 -3 -9 -6 -18 -6
-20 0 -12 -22 -1 -45 22 -25 24 -27 25 -39 9 -9 -12 -21 -16 -35 -12 -14 3
-21 1 -18 -6 2 -7 13 -13 25 -15 40 -6 23 -22 -23 -22 -33 0 -45 4 -45 15 0
19 -14 19 -30 0 -7 -9 -21 -13 -31 -10 -14 5 -17 2 -13 -9 5 -12 -1 -14 -28
-12 -18 2 -25 1 -15 -1 9 -2 17 -9 17 -14 0 -17 -31 -22 -43 -7 -9 10 -22 12
-47 7 -22 -4 -27 -7 -12 -8 12 0 22 -8 22 -16 0 -11 -5 -12 -24 -5 -16 6 -27
5 -35 -3 -9 -9 -14 -9 -19 0 -6 9 -24 4 -67 -18 -74 -37 -85 -47 -65 -59 9 -6
10 -10 3 -10 -6 0 -15 5 -18 10 -11 18 -36 11 -33 -10 2 -10 -1 -18 -7 -17 -5
1 -10 10 -9 20 1 21 -5 21 -34 1 -12 -8 -22 -12 -22 -8 0 4 -10 -3 -22 -16
-15 -16 -18 -25 -10 -28 7 -2 9 -8 6 -14 -4 -6 -10 -5 -15 3 -6 9 -12 10 -16
4 -11 -15 -63 -17 -63 -4 0 8 -4 8 -13 0 -8 -6 -17 -8 -20 -4 -4 3 -7 2 -7 -4
0 -6 -12 -8 -27 -5 -25 5 -26 3 -15 -11 12 -13 10 -18 -7 -29 -21 -13 -29 -38
-12 -38 5 0 14 7 21 15 7 8 16 12 21 10 13 -9 -22 -44 -37 -38 -9 3 -14 -2
-14 -12 0 -11 5 -15 15 -11 8 3 15 1 15 -4 0 -6 -9 -10 -20 -10 -28 0 -37 -28
-14 -45 10 -7 22 -11 26 -9 5 3 8 1 8 -4 0 -6 10 -8 22 -4 17 4 20 2 15 -12
-6 -15 -2 -16 31 -10 34 7 36 6 23 -9 -12 -15 -10 -17 13 -17 14 0 26 -4 26
-10 0 -18 37 -10 52 11 12 19 17 20 36 10 27 -15 29 -31 2 -31 -30 0 -24 -14
12 -28 37 -14 58 3 30 25 -15 11 -14 12 12 13 22 0 27 -4 22 -16 -4 -11 5 -20
34 -32 22 -9 40 -23 40 -29 0 -19 31 -16 45 3 11 16 12 16 18 0 4 -9 2 -16 -3
-16 -6 0 -10 -4 -10 -10 0 -19 49 -10 64 12 9 12 19 18 23 14 5 -5 2 -11 -4
-13 -21 -7 -15 -33 7 -33 11 0 20 5 20 10 0 6 7 10 16 10 23 0 0 -27 -29 -34
-12 -2 3 -4 33 -4 84 1 102 -1 96 -10 -8 -13 50 -52 78 -52 14 0 28 -5 32 -11
3 -6 17 -8 31 -4 18 4 29 1 39 -12 13 -17 15 -17 28 0 16 21 26 22 26 3 0 -7
14 -19 31 -26 24 -10 35 -10 54 0 18 10 28 10 38 2 7 -6 31 -9 53 -7 l39 5
-35 -11 -35 -11 39 -16 c30 -12 43 -13 57 -4 12 8 19 8 19 2 0 -5 4 -10 10
-10 5 0 7 7 4 15 -12 31 77 10 133 -31 17 -13 44 -23 60 -23 21 1 23 3 8 6
-27 7 -45 23 -45 39 0 19 26 18 34 -1 5 -15 37 -21 49 -8 11 10 -14 33 -36 33
-16 0 -18 3 -10 11 8 8 19 8 42 -2 17 -8 31 -17 31 -21 0 -5 12 -8 28 -8 26
-1 26 -1 7 -16 -11 -8 -25 -12 -31 -10 -7 3 -15 -2 -18 -10 -4 -11 5 -14 44
-14 27 0 51 -4 54 -9 6 -10 82 -3 105 9 8 4 37 1 65 -6 89 -24 206 -16 206 13
0 8 7 13 18 11 9 -2 16 -11 16 -21 -2 -19 11 -23 21 -7 3 6 16 10 28 10 21 1
20 2 -8 25 l-30 25 36 0 c19 0 40 -5 47 -12 9 -9 12 -9 12 0 0 7 5 12 10 12
18 0 10 -22 -10 -27 -37 -10 -20 -23 29 -23 56 0 113 23 85 34 -12 5 -14 10
-7 17 15 15 56 1 49 -17 -8 -20 36 -18 76 4 22 13 41 16 59 11 32 -8 63 21 54
50 -3 12 0 21 10 25 20 7 37 -33 23 -51 -8 -10 -5 -13 11 -13 11 0 21 5 21 10
0 6 16 10 36 10 22 0 33 4 29 10 -4 6 -14 8 -24 5 -9 -3 -26 2 -37 10 -16 12
-17 16 -4 24 10 7 19 6 31 -5 20 -18 24 -18 42 1 11 10 41 15 106 16 63 1 94
5 102 15 9 11 8 14 -2 14 -10 0 -11 2 0 12 10 11 15 10 25 -4 15 -20 26 -14
26 14 0 14 8 18 34 18 19 0 38 -4 41 -10 3 -5 10 -10 16 -10 5 0 9 5 9 10 0 6
-7 10 -15 10 -8 0 -15 5 -15 10 0 6 -10 10 -22 10 -17 0 -19 3 -10 12 8 8 15
8 26 -1 8 -7 25 -11 38 -9 22 4 22 5 -5 16 -44 18 -76 14 -101 -13 -23 -25
-50 -32 -60 -17 -3 5 -20 8 -38 7 -18 -1 -64 1 -101 5 -65 7 -117 -3 -117 -22
0 -12 -48 -10 -55 2 -4 6 -127 10 -335 10 -208 0 -331 -4 -335 -10 -11 -17
-60 -11 -83 10 -12 11 -35 20 -52 20 -25 0 -30 -4 -30 -24 l0 -25 -59 22 c-52
19 -57 23 -42 35 14 12 12 13 -16 8 -22 -4 -37 0 -48 10 -14 15 -18 14 -40
-10 -13 -14 -29 -26 -35 -26 -14 0 -13 27 3 33 20 9 -14 27 -40 22 -13 -2 -26
1 -29 7 -4 7 -9 6 -14 -2 -5 -8 -15 -10 -26 -5 -18 8 -18 8 -1 12 9 3 17 9 17
14 0 13 -38 11 -42 -3 -3 -7 -12 -9 -23 -4 -15 5 -16 9 -6 15 10 6 10 10 2 16
-7 4 -18 2 -26 -5 -9 -7 -15 -8 -20 0 -3 5 1 10 9 10 9 0 16 5 16 10 0 6 -13
10 -30 10 -16 0 -30 5 -30 10 0 6 -13 10 -30 10 -21 0 -30 5 -30 16 0 12 -7
14 -30 9 -19 -4 -30 -3 -30 4 0 6 5 11 10 11 6 0 10 4 10 10 0 5 -17 8 -37 6
-30 -2 -44 3 -65 23 -31 28 -37 68 -12 78 8 3 13 12 10 19 -4 10 2 12 26 7 22
-4 29 -3 24 5 -4 7 -15 12 -24 12 -12 0 -13 3 -4 12 9 9 17 9 36 -2 21 -11 28
-11 42 0 14 13 14 15 -2 27 -27 20 6 17 35 -3 17 -12 26 -13 34 -5 6 6 21 11
33 11 28 0 71 23 67 35 -6 20 13 33 50 36 21 2 41 -1 45 -8 4 -6 19 -9 35 -6
l28 6 -26 17 c-20 13 -23 20 -14 26 7 4 14 3 17 -4 2 -7 17 -12 33 -12 21 0
27 -4 23 -15 -4 -10 0 -15 14 -15 15 0 18 5 14 25 -3 20 0 25 17 25 12 0 24
-7 27 -15 4 -8 18 -15 33 -15 21 0 23 2 11 10 -13 9 -12 12 4 25 17 13 22 13
43 -1 14 -9 38 -13 56 -11 30 4 30 4 -6 5 -50 2 -45 25 6 28 20 1 37 -1 37 -4
0 -9 100 -13 114 -5 15 10 50 14 133 16 39 1 66 5 60 9 -20 12 17 20 45 9 34
-13 55 1 34 22 -22 22 -21 24 18 19 27 -3 33 -7 29 -23 -4 -14 0 -19 16 -19
12 0 21 6 21 15 0 13 22 15 134 15 73 0 155 3 181 7 35 4 46 3 41 -5 -5 -8 5
-12 34 -12 25 0 39 4 35 10 -3 6 3 10 15 10 12 0 18 -4 15 -11 -5 -7 45 -9
166 -6 96 3 179 5 184 6 6 0 31 -2 58 -5 49 -6 82 8 71 30 -3 6 1 3 9 -6 8
-10 23 -18 33 -18 18 -1 18 -1 0 -15 -18 -14 -15 -15 40 -14 32 1 49 4 37 6
-27 5 -31 23 -5 24 9 0 54 0 99 -1 46 -1 84 3 87 9 4 6 20 8 36 4 16 -3 37 -2
47 2 10 4 32 9 48 11 l30 4 -28 -15 c-16 -8 -48 -17 -72 -19 -24 -2 -51 -9
-61 -15 -15 -10 -8 -11 36 -6 40 4 63 1 85 -10 21 -12 50 -15 101 -13 40 2 70
6 68 9 -5 9 22 19 52 19 14 0 27 -7 30 -15 4 -8 17 -15 31 -15 13 0 21 -4 18
-10 -4 -6 11 -10 39 -10 25 0 48 -4 51 -10 3 -5 14 -10 23 -10 15 1 15 2 -2
15 -19 15 -19 15 1 15 12 0 25 -4 28 -10 10 -16 38 -12 32 4 -7 17 17 28 31
14 6 -6 12 -6 16 1 4 6 19 11 33 11 25 0 26 0 8 -20 -10 -11 -25 -20 -33 -20
-12 0 -12 -3 -2 -15 8 -9 30 -15 57 -15 30 0 45 5 49 15 8 19 24 19 24 0 0
-18 12 -19 27 -4 8 8 16 8 30 0 17 -10 16 -10 -4 -11 -13 0 -23 -4 -23 -10 0
-11 39 -11 85 -1 19 5 38 2 53 -7 16 -11 40 -13 82 -9 61 5 88 -5 47 -18 l-22
-8 22 -4 c12 -2 31 1 42 6 14 8 22 8 27 0 6 -11 59 -8 110 7 16 4 23 0 27 -15
4 -17 12 -21 44 -20 32 2 33 3 9 6 -17 3 -30 12 -33 24 -3 10 -10 19 -17 20
-6 0 -24 2 -41 2 -18 1 -29 7 -27 15 1 6 -7 12 -18 12 -11 0 -20 5 -20 11 0 8
-14 9 -43 5 -24 -4 -52 -3 -63 1 -17 6 -17 8 6 14 18 5 10 8 -30 9 -30 1 -62
2 -70 1 -9 -1 -25 7 -37 18 -15 14 -23 17 -32 8 -17 -17 -13 -37 9 -37 11 0
20 -4 20 -10 0 -21 -52 -5 -87 27 -10 9 -9 12 5 18 14 6 13 9 -11 21 -15 9
-40 13 -55 11 -24 -4 -24 -4 6 -6 52 -2 37 -21 -18 -21 -37 0 -55 5 -70 20
-22 22 -45 26 -55 10 -3 -5 -10 -10 -16 -10 -14 0 13 39 31 43 8 2 -7 3 -34 3
-31 -1 -51 4 -53 12 -3 7 -21 12 -43 12 -21 0 -42 5 -45 10 -3 6 -23 10 -44
10 -20 0 -41 4 -47 10 -5 5 -45 10 -89 11 -44 1 -88 7 -98 13 -13 8 -20 8 -27
-4 -7 -12 -12 -12 -22 -2 -9 9 -9 12 1 12 7 0 9 5 6 11 -4 6 -13 8 -20 5 -7
-2 -18 1 -24 7 -7 7 -12 8 -11 2 6 -29 0 -36 -21 -25 -17 10 -18 14 -7 28 11
14 11 15 -5 9 -10 -4 -27 -2 -38 3 -13 8 -25 7 -40 -1 -12 -6 -19 -7 -15 -1 4
6 -8 9 -31 9 -45 -2 -59 -27 -15 -27 17 0 32 -5 34 -12 3 -8 12 -5 27 9 l22
21 23 -22 c13 -12 19 -25 14 -31 -6 -6 -12 -5 -17 3 -4 7 -23 12 -42 12 -29 0
-70 3 -114 9 -5 0 -4 6 2 12 17 17 -9 39 -52 46 -20 3 -38 10 -41 14 -3 5 -17
9 -32 8 -24 0 -25 -1 -7 -9 18 -7 18 -8 3 -14 -41 -14 -47 -14 -52 0 -3 9 -20
14 -47 14 -37 0 -40 2 -28 16 13 16 8 17 -64 12 -56 -4 -80 -1 -88 8 -7 9 -43
13 -120 13 -61 0 -114 3 -120 6 -5 4 -9 2 -9 -3 0 -5 -17 -7 -37 -3 -21 3 -56
4 -78 1 -22 -3 -53 -2 -70 2 -30 7 -204 16 -209 10z m-456 -57 c0 -8 -7 -15
-15 -15 -8 0 -15 7 -15 15 0 8 7 15 15 15 8 0 15 -7 15 -15z m1185 5 c-3 -5
-13 -10 -21 -10 -8 0 -14 5 -14 10 0 6 9 10 21 10 11 0 17 -4 14 -10z m70 -30
c-3 -5 -16 -10 -28 -9 -20 1 -20 2 3 9 14 4 26 8 28 9 2 1 0 -3 -3 -9z m-1210
-10 c-3 -5 -13 -10 -21 -10 -8 0 -14 5 -14 10 0 6 9 10 21 10 11 0 17 -4 14
-10z m983 -9 c10 -6 9 -10 -7 -14 -21 -5 -36 5 -24 17 8 8 15 7 31 -3z m-1066
-13 c-9 -9 -15 -9 -24 0 -9 9 -7 12 12 12 19 0 21 -3 12 -12z m1518 8 c0 -3
-4 -8 -10 -11 -5 -3 -10 -1 -10 4 0 6 5 11 10 11 6 0 10 -2 10 -4z m-1705 -25
c-6 -10 -51 -8 -62 2 -3 4 10 7 31 7 20 0 35 -4 31 -9z m98 2 c-7 -2 -21 -2
-30 0 -10 3 -4 5 12 5 17 0 24 -2 18 -5z m127 -24 c0 -4 -7 -6 -15 -3 -8 4
-15 10 -15 15 0 4 7 6 15 3 8 -4 15 -10 15 -15z m-70 1 c0 -5 -7 -10 -15 -10
-8 0 -15 5 -15 10 0 6 7 10 15 10 8 0 15 -4 15 -10z m1333 3 c-7 -2 -19 -2
-25 0 -7 3 -2 5 12 5 14 0 19 -2 13 -5z m207 -3 c0 -5 -2 -10 -4 -10 -3 0 -8
5 -11 10 -3 6 -1 10 4 10 6 0 11 -4 11 -10z m-720 -16 c0 -2 -14 -4 -31 -4
-16 0 -28 4 -25 9 5 8 56 3 56 -5z m1240 -14 c12 -8 11 -10 -7 -10 -13 0 -23
5 -23 10 0 13 11 13 30 0z m-882 -7 c-21 -2 -55 -2 -75 0 -21 2 -4 4 37 4 41
0 58 -2 38 -4z m425 0 c-13 -2 -35 -2 -50 0 -16 2 -5 4 22 4 28 0 40 -2 28 -4z
m-1158 -13 c4 -6 -6 -10 -22 -10 -22 0 -25 2 -13 10 19 12 27 12 35 0z m368
-7 c-13 -2 -33 -2 -45 0 -13 2 -3 4 22 4 25 0 35 -2 23 -4z m525 0 c-21 -2
-55 -2 -75 0 -21 2 -4 4 37 4 41 0 58 -2 38 -4z m415 0 c-7 -2 -21 -2 -30 0
-10 3 -4 5 12 5 17 0 24 -2 18 -5z m-2533 -13 c0 -5 -2 -10 -4 -10 -3 0 -8 5
-11 10 -3 6 -1 10 4 10 6 0 11 -4 11 -10z m3014 1 c3 -5 -12 -11 -33 -13 -46
-4 -63 0 -55 13 7 12 81 12 88 0z m-1024 -22 c0 -5 -33 -9 -73 -9 -52 0 -74 4
-74 13 0 9 20 11 74 9 40 -2 73 -8 73 -13z m313 14 c-7 -2 -19 -2 -25 0 -7 3
-2 5 12 5 14 0 19 -2 13 -5z m494 1 c-3 -3 -12 -4 -19 -1 -8 3 -5 6 6 6 11 1
17 -2 13 -5z m-2912 -34 c3 -5 -3 -10 -15 -10 -12 0 -18 5 -15 10 3 6 10 10
15 10 5 0 12 -4 15 -10z m150 0 c4 -6 -5 -10 -19 -10 -14 0 -26 5 -26 10 0 6
9 10 19 10 11 0 23 -4 26 -10z m62 -13 c0 -7 -7 -19 -16 -27 -13 -13 -14 -12
-8 4 4 10 7 22 7 27 0 5 4 9 8 9 5 0 9 -6 9 -13z m2825 1 c-9 -9 -15 -9 -24 0
-9 9 -7 12 12 12 19 0 21 -3 12 -12z m105 6 c-3 -3 -12 -4 -19 -1 -8 3 -5 6 6
6 11 1 17 -2 13 -5z m-3102 -32 c-8 -8 -25 10 -19 20 4 6 9 5 15 -3 4 -7 6
-15 4 -17z m55 12 c0 -8 -4 -12 -10 -9 -5 3 -10 10 -10 16 0 5 5 9 10 9 6 0
10 -7 10 -16z m210 -34 c0 -5 9 -10 20 -10 11 0 20 -7 20 -15 0 -8 -7 -15 -15
-15 -9 0 -18 7 -21 15 -4 8 -12 15 -20 15 -8 0 -14 5 -14 10 0 6 7 10 15 10 8
0 15 -4 15 -10z m70 6 c0 -3 -4 -8 -10 -11 -5 -3 -10 -1 -10 4 0 6 5 11 10 11
6 0 10 -2 10 -4z m260 -4 c0 -4 -16 -6 -35 -4 -19 2 -35 6 -35 8 0 2 16 4 35
4 19 0 35 -4 35 -8z m2665 -21 c-8 -13 -45 -15 -45 -2 0 5 10 11 23 13 27 5
31 3 22 -11z m-2825 2 c-8 -3 -22 -12 -30 -19 -16 -13 -44 -14 -56 -1 -4 4 4
7 19 7 14 0 29 5 32 10 3 6 16 10 28 9 15 0 17 -2 7 -6z m-213 -25 c-3 -8 -6
-5 -6 6 -1 11 2 17 5 13 3 -3 4 -12 1 -19z m-479 -1 c6 0 12 -4 12 -8 0 -16
-27 -15 -55 3 l-30 20 30 -7 c17 -4 36 -8 43 -8z m3827 3 c-3 -5 -19 -10 -36
-10 -16 0 -29 5 -29 10 0 6 16 10 36 10 21 0 33 -4 29 -10z m155 -33 c11 -4 9
-6 -5 -6 -28 -1 -49 14 -40 28 5 9 10 8 18 -2 7 -8 19 -17 27 -20z m-4084 16
c-11 -11 -46 -14 -46 -3 0 6 12 10 27 10 14 0 23 -3 19 -7z m51 -41 c-34 -4
-48 5 -27 18 8 5 22 4 34 -3 20 -11 20 -12 -7 -15z m663 12 c0 -8 -4 -12 -10
-9 -5 3 -10 1 -10 -4 0 -13 -47 -15 -55 -2 -7 12 24 30 53 31 13 0 22 -6 22
-16z m-880 -39 c0 -14 -4 -25 -9 -25 -10 0 -21 36 -13 44 12 13 22 5 22 -19z
m625 -41 c-9 -9 -18 -14 -21 -11 -9 9 6 27 22 27 13 0 13 -2 -1 -16z m-786
-95 c-8 -5 -15 -4 -17 1 -2 5 -11 6 -20 3 -14 -6 -15 -5 -2 9 11 12 20 13 34
6 15 -8 16 -12 5 -19z m-34 -29 c3 -5 1 -10 -4 -10 -6 0 -11 5 -11 10 0 6 2
10 4 10 3 0 8 -4 11 -10z m815 -5 c0 -8 -4 -15 -10 -15 -5 0 -10 7 -10 15 0 8
5 15 10 15 6 0 10 -7 10 -15z m-720 -10 c0 -8 -7 -15 -15 -15 -8 0 -15 7 -15
15 0 8 7 15 15 15 8 0 15 -7 15 -15z m45 -15 c-5 -14 -2 -20 9 -20 9 0 16 5
16 11 0 5 5 7 11 3 20 -12 -16 -24 -50 -18 -31 6 -31 7 -14 25 24 24 36 24 28
-1z m149 -29 c8 -12 -20 -22 -40 -14 -13 5 -13 7 -2 14 17 11 35 11 42 0z
m-154 -43 c0 -6 -7 -5 -15 2 -8 7 -15 17 -15 22 0 6 7 5 15 -2 8 -7 15 -17 15
-22z m838 -49 c10 0 12 -3 5 -5 -7 -3 -22 0 -34 6 -17 10 -19 14 -8 21 9 6 15
4 17 -6 2 -8 11 -15 20 -16z m-448 -19 c0 -5 -5 -10 -11 -10 -5 0 -7 5 -4 10
3 6 8 10 11 10 2 0 4 -4 4 -10z m54 -15 c-4 -8 -8 -15 -10 -15 -2 0 -4 7 -4
15 0 8 4 15 10 15 5 0 7 -7 4 -15z m794 -53 c3 -9 -2 -13 -14 -10 -9 1 -19 9
-22 16 -3 9 2 13 14 10 9 -1 19 -9 22 -16z m212 -1 c0 -10 -30 -24 -37 -17 -3
3 -2 9 2 15 8 13 35 15 35 2z m898 -2 c-2 -6 -8 -10 -13 -10 -5 0 -11 4 -13
10 -2 6 4 11 13 11 9 0 15 -5 13 -11z m-1770 -35 c-10 -10 -28 6 -28 24 0 15
1 15 17 -1 9 -9 14 -19 11 -23z m1617 16 c10 -11 13 -20 7 -20 -7 0 -12 3 -12
8 0 4 -140 8 -310 10 -279 2 -310 1 -310 -14 0 -8 -5 -14 -12 -12 -18 6 -21
28 -4 28 9 0 16 5 16 10 0 6 108 10 303 10 291 0 305 -1 322 -20z m-915 6 c0
-2 -7 -6 -15 -10 -8 -3 -15 -1 -15 4 0 6 7 10 15 10 8 0 15 -2 15 -4z m1115
-16 c3 -5 -3 -10 -15 -10 -12 0 -18 5 -15 10 3 6 10 10 15 10 5 0 12 -4 15
-10z m-1035 -20 c0 -5 -9 -10 -21 -10 -11 0 -17 5 -14 10 3 6 13 10 21 10 8 0
14 -4 14 -10z m130 -6 c0 -2 -7 -4 -15 -4 -8 0 -15 4 -15 10 0 5 7 7 15 4 8
-4 15 -8 15 -10z m823 -1 c-7 -2 -19 -2 -25 0 -7 3 -2 5 12 5 14 0 19 -2 13
-5z m-1513 -53 c0 -5 -6 -10 -14 -10 -8 0 -18 5 -21 10 -3 6 3 10 14 10 12 0
21 -4 21 -10z m235 0 c-3 -5 -14 -10 -23 -10 -15 0 -15 2 -2 10 20 13 33 13
25 0z m270 0 c4 -6 -5 -10 -19 -10 -14 0 -26 5 -26 10 0 6 9 10 19 10 11 0 23
-4 26 -10z m805 0 c0 -5 -10 -10 -22 -9 -22 0 -22 1 -3 9 11 5 21 9 23 9 1 1
2 -3 2 -9z m-1120 -19 c0 -3 -11 -11 -25 -18 -28 -12 -45 0 -19 15 18 10 44
12 44 3z m110 5 c0 -11 -19 -15 -25 -6 -3 5 1 10 9 10 9 0 16 -2 16 -4z m264
-2 c26 -10 9 -21 -23 -16 -17 2 -28 8 -25 13 6 10 26 12 48 3z m516 -4 c0 -13
-20 -13 -40 0 -12 8 -9 10 13 10 15 0 27 -4 27 -10z m-740 -14 c0 -2 -7 -6
-15 -10 -8 -3 -15 -1 -15 4 0 6 7 10 15 10 8 0 15 -2 15 -4z m930 -20 c0 -2
-7 -6 -15 -10 -8 -3 -15 -1 -15 4 0 6 7 10 15 10 8 0 15 -2 15 -4z m-145 -26
c-3 -5 -15 -10 -26 -10 -10 0 -19 5 -19 10 0 6 12 10 26 10 14 0 23 -4 19 -10z"/>
<path d="M9659 1363 c-1 -4 -1 -12 0 -16 1 -4 -6 -10 -14 -13 -20 -8 -9 -24
16 -24 16 0 19 5 14 20 -6 20 9 28 20 10 8 -12 25 -13 25 -1 0 5 -8 11 -17 15
-10 3 -24 9 -30 12 -7 3 -14 2 -14 -3z"/>
<path d="M9738 1333 c7 -3 16 -2 19 1 4 3 -2 6 -13 5 -11 0 -14 -3 -6 -6z"/>
<path d="M1785 1300 c-3 -5 1 -10 9 -10 9 0 16 5 16 10 0 6 -4 10 -9 10 -6 0
-13 -4 -16 -10z"/>
<path d="M7342 1289 c2 -7 10 -15 17 -17 8 -3 12 1 9 9 -2 7 -10 15 -17 17 -8
3 -12 -1 -9 -9z"/>
<path d="M7282 1278 c6 -18 25 -21 31 -5 3 8 -3 13 -15 14 -10 1 -18 -3 -16
-9z"/>
<path d="M10010 1230 c10 -19 40 -28 40 -12 0 13 -23 32 -37 32 -11 0 -11 -5
-3 -20z"/>
<path d="M9140 1190 c0 -5 11 -10 25 -10 14 0 25 5 25 10 0 6 -11 10 -25 10
-14 0 -25 -4 -25 -10z"/>
<path d="M4750 1184 c0 -3 6 -12 14 -20 16 -15 32 -2 21 16 -7 11 -35 14 -35
4z"/>
<path d="M2838 1153 c18 -2 45 -2 60 0 15 2 0 4 -33 4 -33 0 -45 -2 -27 -4z"/>
<path d="M2948 1153 c7 -3 16 -2 19 1 4 3 -2 6 -13 5 -11 0 -14 -3 -6 -6z"/>
<path d="M3098 1153 c12 -2 30 -2 40 0 9 3 -1 5 -23 4 -22 0 -30 -2 -17 -4z"/>
<path d="M4386 1132 c-3 -6 -1 -14 5 -17 15 -10 25 3 12 16 -7 7 -13 7 -17 1z"/>
<path d="M10415 1080 c3 -5 11 -10 16 -10 6 0 7 5 4 10 -3 6 -11 10 -16 10 -6
0 -7 -4 -4 -10z"/>
<path d="M1910 1030 c-13 -24 5 -27 33 -6 16 12 16 14 1 20 -22 8 -22 8 -34
-14z"/>
<path d="M5240 1000 c0 -5 15 -10 33 -9 27 0 29 2 12 9 -28 12 -45 12 -45 0z"/>
<path d="M855 990 c-3 -5 -1 -10 4 -10 6 0 11 5 11 10 0 6 -2 10 -4 10 -3 0
-8 -4 -11 -10z"/>
<path d="M5458 973 c7 -3 16 -2 19 1 4 3 -2 6 -13 5 -11 0 -14 -3 -6 -6z"/>
<path d="M708 928 c9 -9 15 -9 24 0 9 9 7 12 -12 12 -19 0 -21 -3 -12 -12z"/>
<path d="M5574 925 c-18 -13 -18 -14 -1 -15 10 0 25 7 33 15 21 21 -5 21 -32
0z"/>
<path d="M670 910 c0 -5 4 -10 9 -10 6 0 13 5 16 10 3 6 -1 10 -9 10 -9 0 -16
-4 -16 -10z"/>
<path d="M5630 903 c0 -12 3 -14 8 -7 4 7 18 14 32 17 21 4 20 4 -7 6 -25 1
-33 -3 -33 -16z"/>
<path d="M5737 883 c-8 -44 -3 -51 24 -34 18 11 23 10 36 -8 8 -12 19 -21 25
-21 7 0 6 5 -2 15 -6 8 -9 23 -5 35 5 14 1 22 -12 26 -10 3 -26 10 -35 15 -25
13 -25 13 -31 -28z"/>
<path d="M9160 910 c0 -5 4 -10 9 -10 6 0 13 5 16 10 3 6 -1 10 -9 10 -9 0
-16 -4 -16 -10z"/>
<path d="M5860 890 c0 -5 4 -10 9 -10 6 0 13 5 16 10 3 6 -1 10 -9 10 -9 0
-16 -4 -16 -10z"/>
<path d="M676 882 c-3 -5 -19 -8 -35 -7 -17 1 -32 -4 -35 -11 -5 -14 61 -70
71 -60 4 3 1 6 -5 6 -7 0 -12 4 -12 9 0 5 9 7 19 4 17 -4 20 0 19 26 -1 32
-12 49 -22 33z"/>
<path d="M5680 882 c0 -14 11 -21 26 -15 8 3 11 9 8 14 -7 11 -34 12 -34 1z"/>
<path d="M5909 883 c-1 -5 -2 -12 -4 -18 -1 -5 -3 -14 -3 -19 -1 -6 -8 -1 -16
10 -8 10 -17 16 -21 12 -4 -4 7 -21 25 -38 26 -25 37 -30 61 -25 23 5 29 3 29
-10 0 -10 7 -15 17 -13 23 4 28 25 6 31 -10 3 -3 5 15 6 22 1 32 -4 32 -14 0
-8 7 -15 15 -15 18 0 20 -16 3 -23 -7 -3 -1 -5 15 -4 15 1 27 5 27 10 0 13
-68 77 -82 77 -9 0 -8 4 1 13 11 10 14 10 18 0 3 -7 14 -13 26 -13 20 0 20 0
1 15 -26 20 -84 20 -84 0 0 -8 -9 -15 -20 -15 -11 0 -20 6 -20 14 0 18 -39 35
-41 19z"/>
<path d="M1610 872 c0 -12 48 -52 62 -52 5 0 8 6 6 12 -6 17 -68 53 -68 40z"/>
<path d="M8992 865 c-7 -8 -9 -15 -4 -15 5 0 15 7 22 15 16 19 -1 19 -18 0z"/>
<path d="M6100 846 c0 -8 7 -16 15 -20 8 -3 12 -12 9 -21 -10 -25 34 -18 68
10 l29 25 -48 -5 c-26 -2 -39 -2 -28 1 40 12 39 24 -3 24 -29 0 -42 -4 -42
-14z"/>
<path d="M8910 850 c0 -5 7 -10 15 -10 8 0 15 5 15 10 0 6 -7 10 -15 10 -8 0
-15 -4 -15 -10z"/>
<path d="M570 830 c0 -5 5 -10 11 -10 5 0 7 5 4 10 -3 6 -8 10 -11 10 -2 0 -4
-4 -4 -10z"/>
<path d="M6120 772 c0 -6 33 -31 43 -32 19 -1 4 28 -18 32 -14 3 -25 3 -25 0z"/>
<path d="M7948 753 c7 -3 16 -2 19 1 4 3 -2 6 -13 5 -11 0 -14 -3 -6 -6z"/>
<path d="M9500 690 c0 -5 5 -10 10 -10 6 0 10 5 10 10 0 6 -4 10 -10 10 -5 0
-10 -4 -10 -10z"/>
<path d="M1030 650 c0 -5 7 -10 15 -10 8 0 15 5 15 10 0 6 -7 10 -15 10 -8 0
-15 -4 -15 -10z"/>
<path d="M3630 641 c0 -6 6 -11 14 -11 8 0 16 -7 20 -15 8 -22 26 -18 26 5 0
11 -6 20 -14 20 -8 0 -21 3 -30 6 -9 3 -16 1 -16 -5z"/>
<path d="M3709 636 c16 -19 44 -21 39 -3 -3 6 -15 14 -28 15 -21 3 -22 2 -11
-12z"/>
<path d="M1090 630 c0 -5 5 -10 10 -10 6 0 10 5 10 10 0 6 -4 10 -10 10 -5 0
-10 -4 -10 -10z"/>
<path d="M3456 615 c4 -8 10 -12 15 -9 14 8 10 24 -6 24 -9 0 -12 -6 -9 -15z"/>
<path d="M6805 610 c-3 -5 1 -10 10 -10 9 0 13 5 10 10 -3 6 -8 10 -10 10 -2
0 -7 -4 -10 -10z"/>
<path d="M3635 590 c-3 -5 1 -10 9 -10 9 0 16 5 16 10 0 6 -4 10 -9 10 -6 0
-13 -4 -16 -10z"/>
<path d="M1320 556 c0 -8 51 -13 56 -5 3 5 -9 9 -25 9 -17 0 -31 -2 -31 -4z"/>
<path d="M3545 550 c3 -5 8 -10 11 -10 2 0 4 5 4 10 0 6 -5 10 -11 10 -5 0 -7
-4 -4 -10z"/>
<path d="M8918 553 c6 -2 18 -2 25 0 6 3 1 5 -13 5 -14 0 -19 -2 -12 -5z"/>
<path d="M3300 485 c0 -8 7 -15 16 -15 14 0 14 3 4 15 -7 8 -14 15 -16 15 -2
0 -4 -7 -4 -15z"/>
<path d="M1745 440 c-3 -5 1 -10 10 -10 9 0 13 5 10 10 -3 6 -8 10 -10 10 -2
0 -7 -4 -10 -10z"/>
<path d="M1958 393 c12 -2 30 -2 40 0 9 3 -1 5 -23 4 -22 0 -30 -2 -17 -4z"/>
</g>
</svg>
